M48
;DRILL file {KiCad (2015-09-21 BZR 6208, Git 1d27d08)-product} date Sam 03 Okt 2015 00:59:20 CEST
;FORMAT={-:-/ absolute / metric / decimal}
FMAT,2
METRIC,TZ
T1C0.400
T2C0.800
T3C1.016
%
G90
G05
M71
T1
X180.34Y-94.615
X181.5Y-102.5
X181.5Y-104.5
X181.5Y-106.
X194.Y-124.5
X199.Y-111.
X201.9Y-106.5
X202.5Y-104.5
X203.5Y-102.75
T2
X183.5Y-113.
X183.5Y-123.
X200.5Y-113.
X200.5Y-123.
X203.99Y-114.66
X203.99Y-116.51
X203.99Y-118.36
X205.85Y-114.35
X205.85Y-118.65
X207.7Y-115.75
X207.7Y-117.25
T3
X182.88Y-127.
X182.88Y-129.54
X185.42Y-127.
X185.42Y-129.54
X187.96Y-127.
X187.96Y-129.54
X190.5Y-127.
X190.5Y-129.54
X193.04Y-127.
X193.04Y-129.54
X195.58Y-127.
X195.58Y-129.54
X198.12Y-127.
X198.12Y-129.54
X200.66Y-127.
X200.66Y-129.54
X203.2Y-127.
X203.2Y-129.54
X203.75Y-110.
X205.02Y-107.8
X205.74Y-127.
X205.74Y-129.54
X206.29Y-105.601
X207.56Y-103.401
T0
M30
