G04 #@! TF.FileFunction,Copper,L2,Bot,Signal*
%FSLAX46Y46*%
G04 Gerber Fmt 4.6, Leading zero omitted, Abs format (unit mm)*
G04 Created by KiCad (PCBNEW (2015-09-21 BZR 6208, Git 1d27d08)-product) date Sam 03 Okt 2015 00:56:19 CEST*
%MOMM*%
G01*
G04 APERTURE LIST*
%ADD10C,0.100000*%
%ADD11C,0.010000*%
%ADD12R,1.500000X1.500000*%
%ADD13C,1.600000*%
%ADD14C,1.400000*%
%ADD15R,1.727200X1.727200*%
%ADD16O,1.727200X1.727200*%
%ADD17C,1.727200*%
%ADD18C,0.800000*%
%ADD19C,0.500000*%
%ADD20C,0.250000*%
%ADD21C,0.300000*%
G04 APERTURE END LIST*
D10*
D11*
G36*
X186979718Y-94662722D02*
X186980784Y-94896249D01*
X186982392Y-95109165D01*
X186984447Y-95295570D01*
X186986858Y-95449569D01*
X186989530Y-95565262D01*
X186992369Y-95636752D01*
X186995282Y-95658140D01*
X186995503Y-95657556D01*
X187005597Y-95621222D01*
X187028683Y-95536920D01*
X187062986Y-95411161D01*
X187106736Y-95250456D01*
X187158158Y-95061316D01*
X187215480Y-94850252D01*
X187268280Y-94655667D01*
X187528546Y-93696111D01*
X188034096Y-93696111D01*
X188293451Y-94655667D01*
X188354490Y-94881550D01*
X188411363Y-95092104D01*
X188462260Y-95280629D01*
X188505375Y-95440424D01*
X188538898Y-95564791D01*
X188561023Y-95647029D01*
X188569496Y-95678722D01*
X188575161Y-95711278D01*
X188563487Y-95730234D01*
X188523471Y-95739262D01*
X188444110Y-95742034D01*
X188379217Y-95742222D01*
X188172248Y-95742222D01*
X188117624Y-95495278D01*
X188063000Y-95248333D01*
X187515874Y-95232217D01*
X187486999Y-95336793D01*
X187463397Y-95427814D01*
X187436433Y-95539523D01*
X187424460Y-95591796D01*
X187390796Y-95742222D01*
X186976445Y-95742222D01*
X186977303Y-99023056D01*
X186977612Y-99447367D01*
X186978296Y-99855000D01*
X186979329Y-100242511D01*
X186980685Y-100606455D01*
X186982338Y-100943389D01*
X186984262Y-101249867D01*
X186986432Y-101522445D01*
X186988820Y-101757679D01*
X186991402Y-101952125D01*
X186994151Y-102102339D01*
X186997041Y-102204875D01*
X187000047Y-102256290D01*
X187001725Y-102261556D01*
X187134318Y-102020966D01*
X187255255Y-101796852D01*
X187362129Y-101593989D01*
X187452535Y-101417156D01*
X187524067Y-101271130D01*
X187574319Y-101160688D01*
X187600885Y-101090610D01*
X187603419Y-101066754D01*
X187577960Y-101034410D01*
X187523772Y-100966245D01*
X187447415Y-100870488D01*
X187355450Y-100755371D01*
X187291521Y-100675449D01*
X187195150Y-100554123D01*
X187112567Y-100448427D01*
X187049678Y-100366062D01*
X187012389Y-100314724D01*
X187004667Y-100301505D01*
X187030626Y-100294208D01*
X187099467Y-100288757D01*
X187197634Y-100286111D01*
X187223842Y-100286000D01*
X187443017Y-100286000D01*
X187753008Y-100685658D01*
X188063000Y-101085316D01*
X188070831Y-100685658D01*
X188078661Y-100286000D01*
X188472222Y-100286000D01*
X188472222Y-102346222D01*
X188077111Y-102346222D01*
X188077111Y-101650927D01*
X187986722Y-101533321D01*
X187896333Y-101415714D01*
X187413889Y-102343632D01*
X187188111Y-102353294D01*
X187165062Y-102355473D01*
X187193949Y-102357643D01*
X187270263Y-102359735D01*
X187389497Y-102361682D01*
X187547143Y-102363414D01*
X187738691Y-102364865D01*
X187959634Y-102365966D01*
X188048889Y-102366274D01*
X188286793Y-102366465D01*
X188503080Y-102365599D01*
X188692188Y-102363778D01*
X188848557Y-102361103D01*
X188966626Y-102357676D01*
X189040834Y-102353599D01*
X189065619Y-102348975D01*
X189063241Y-102347683D01*
X188970700Y-102316575D01*
X188913099Y-102282751D01*
X188882177Y-102232812D01*
X188869675Y-102153359D01*
X188867334Y-102030992D01*
X188867333Y-102029865D01*
X188867333Y-101800161D01*
X188930833Y-101858224D01*
X189065984Y-101950673D01*
X189212387Y-101997080D01*
X189358572Y-101995848D01*
X189493071Y-101945377D01*
X189504566Y-101938132D01*
X189585312Y-101863010D01*
X189643138Y-101755228D01*
X189679912Y-101608690D01*
X189697506Y-101417301D01*
X189699695Y-101302000D01*
X189698407Y-101154335D01*
X189692929Y-101048493D01*
X189681152Y-100969891D01*
X189660968Y-100903947D01*
X189633163Y-100841926D01*
X189558503Y-100722008D01*
X189469249Y-100648127D01*
X189351229Y-100609876D01*
X189309048Y-100603900D01*
X189159707Y-100614939D01*
X189014401Y-100680608D01*
X188930833Y-100745776D01*
X188867333Y-100803839D01*
X188867333Y-100343894D01*
X188957780Y-100297122D01*
X189086231Y-100254143D01*
X189245544Y-100235644D01*
X189415312Y-100242502D01*
X189560556Y-100271192D01*
X189734128Y-100350228D01*
X189884040Y-100476300D01*
X190003170Y-100642476D01*
X190054252Y-100751667D01*
X190082011Y-100829479D01*
X190100835Y-100904371D01*
X190112389Y-100990178D01*
X190118337Y-101100739D01*
X190120341Y-101249889D01*
X190120423Y-101302000D01*
X190119266Y-101464514D01*
X190114684Y-101584406D01*
X190105008Y-101675468D01*
X190088569Y-101751497D01*
X190063700Y-101826286D01*
X190053948Y-101851551D01*
X189955694Y-102037146D01*
X189824555Y-102186259D01*
X189667718Y-102291477D01*
X189600615Y-102319195D01*
X189579321Y-102326800D01*
X189563577Y-102333647D01*
X189556085Y-102339778D01*
X189559543Y-102345231D01*
X189576654Y-102350049D01*
X189610116Y-102354271D01*
X189662631Y-102357938D01*
X189736899Y-102361091D01*
X189835620Y-102363769D01*
X189961494Y-102366014D01*
X190117222Y-102367867D01*
X190305505Y-102369367D01*
X190529042Y-102370555D01*
X190790534Y-102371472D01*
X191092682Y-102372158D01*
X191438185Y-102372653D01*
X191829745Y-102372999D01*
X192270061Y-102373236D01*
X192761834Y-102373404D01*
X193220611Y-102373523D01*
X196995333Y-102374444D01*
X196992733Y-101605389D01*
X196990132Y-100836333D01*
X196839781Y-101302000D01*
X196781661Y-101482533D01*
X196721459Y-101670436D01*
X196664756Y-101848228D01*
X196617135Y-101998426D01*
X196598716Y-102056944D01*
X196508003Y-102346222D01*
X196259681Y-102346222D01*
X196138032Y-102344705D01*
X196061617Y-102338756D01*
X196019273Y-102326278D01*
X195999839Y-102305174D01*
X195996803Y-102296833D01*
X195981090Y-102245277D01*
X195952105Y-102151820D01*
X195912590Y-102025174D01*
X195907076Y-102007556D01*
X195160889Y-102007556D01*
X195160889Y-102346222D01*
X193862667Y-102346222D01*
X193862667Y-102007556D01*
X194314222Y-102007556D01*
X194314222Y-100286000D01*
X193552222Y-100286000D01*
X193552222Y-102346222D01*
X193121833Y-102345532D01*
X192960175Y-102343373D01*
X192808112Y-102337908D01*
X192679472Y-102329874D01*
X192588083Y-102320009D01*
X192565631Y-102315849D01*
X192563778Y-102315278D01*
X191961827Y-102315278D01*
X191950154Y-102334234D01*
X191910138Y-102343262D01*
X191830776Y-102346034D01*
X191765884Y-102346222D01*
X191558914Y-102346222D01*
X191504291Y-102099278D01*
X191449667Y-101852333D01*
X191176104Y-101844275D01*
X190902540Y-101836217D01*
X190873665Y-101940793D01*
X190850064Y-102031814D01*
X190823100Y-102143523D01*
X190811127Y-102195796D01*
X190777463Y-102346222D01*
X190569749Y-102346222D01*
X190463633Y-102345340D01*
X190402967Y-102340260D01*
X190376758Y-102327328D01*
X190374017Y-102302893D01*
X190378660Y-102282722D01*
X190389749Y-102241293D01*
X190413794Y-102152083D01*
X190448984Y-102021791D01*
X190493508Y-101857116D01*
X190545555Y-101664754D01*
X190603314Y-101451405D01*
X190655249Y-101259667D01*
X190915213Y-100300111D01*
X191420763Y-100300111D01*
X191680117Y-101259667D01*
X191741157Y-101485550D01*
X191798030Y-101696104D01*
X191848927Y-101884629D01*
X191892041Y-102044424D01*
X191925565Y-102168791D01*
X191947690Y-102251029D01*
X191956162Y-102282722D01*
X191961827Y-102315278D01*
X192563778Y-102315278D01*
X192391573Y-102262226D01*
X192266633Y-102188982D01*
X192184859Y-102088870D01*
X192140300Y-101954640D01*
X192127000Y-101781778D01*
X192136882Y-101617901D01*
X192171034Y-101495446D01*
X192236218Y-101402173D01*
X192339194Y-101325844D01*
X192395429Y-101295850D01*
X192475990Y-101253156D01*
X192507364Y-101228381D01*
X192492836Y-101218646D01*
X192484011Y-101218239D01*
X192410917Y-101193403D01*
X192332672Y-101130901D01*
X192263593Y-101046050D01*
X192217995Y-100954164D01*
X192210716Y-100925860D01*
X192201714Y-100757026D01*
X192237332Y-100603603D01*
X192314527Y-100478252D01*
X192319650Y-100472708D01*
X192394795Y-100406971D01*
X192485131Y-100357644D01*
X192599026Y-100322806D01*
X192744848Y-100300541D01*
X192930964Y-100288929D01*
X193134011Y-100286000D01*
X193552222Y-100286000D01*
X194314222Y-100286000D01*
X194314222Y-100279267D01*
X194575278Y-100294084D01*
X194712838Y-100306303D01*
X194848868Y-100325757D01*
X194959534Y-100348838D01*
X194984500Y-100356017D01*
X195132667Y-100403135D01*
X195132667Y-100570345D01*
X195131571Y-100659038D01*
X195128727Y-100719667D01*
X195125521Y-100737556D01*
X195096980Y-100730387D01*
X195028317Y-100711478D01*
X194933647Y-100684723D01*
X194921000Y-100681111D01*
X194824123Y-100653666D01*
X194751531Y-100633591D01*
X194717339Y-100624782D01*
X194716479Y-100624667D01*
X194714507Y-100651617D01*
X194712743Y-100727377D01*
X194711267Y-100844315D01*
X194710157Y-100994797D01*
X194709492Y-101171189D01*
X194709333Y-101316111D01*
X194709333Y-102007556D01*
X195160889Y-102007556D01*
X195907076Y-102007556D01*
X195865285Y-101874049D01*
X195812928Y-101707157D01*
X195758262Y-101533211D01*
X195704024Y-101360922D01*
X195652957Y-101199000D01*
X195607799Y-101056158D01*
X195571291Y-100941108D01*
X195546173Y-100862560D01*
X195535204Y-100829278D01*
X195543450Y-100810133D01*
X195590981Y-100798910D01*
X195685026Y-100794296D01*
X195729502Y-100794000D01*
X195937265Y-100794000D01*
X196091535Y-101372556D01*
X196137885Y-101543671D01*
X196180177Y-101694703D01*
X196216073Y-101817709D01*
X196243233Y-101904744D01*
X196259319Y-101947864D01*
X196261889Y-101951111D01*
X196273570Y-101925123D01*
X196297128Y-101852456D01*
X196330224Y-101741056D01*
X196370521Y-101598871D01*
X196415681Y-101433845D01*
X196432042Y-101372769D01*
X196586111Y-100794427D01*
X196790722Y-100794213D01*
X196995333Y-100794000D01*
X196995333Y-96984000D01*
X196882445Y-96984000D01*
X196882445Y-99044222D01*
X195612445Y-99044222D01*
X195612445Y-98677333D01*
X196487333Y-98677333D01*
X196487333Y-98510965D01*
X195245556Y-98510965D01*
X195245556Y-98720156D01*
X195243641Y-98830385D01*
X195231199Y-98903573D01*
X195198186Y-98951008D01*
X195134557Y-98983980D01*
X195030267Y-99013776D01*
X194971488Y-99028164D01*
X194774423Y-99060347D01*
X194567845Y-99067659D01*
X194378598Y-99049505D01*
X194352644Y-99044222D01*
X193495778Y-99044222D01*
X193100667Y-99044222D01*
X193100667Y-98705556D01*
X191774222Y-98705556D01*
X191774222Y-99044222D01*
X190476000Y-99044222D01*
X190476000Y-98718679D01*
X190165556Y-98718679D01*
X190165556Y-99044222D01*
X188867333Y-99044222D01*
X188867333Y-98705556D01*
X189719171Y-98705556D01*
X189378111Y-98348754D01*
X189208791Y-98165839D01*
X189080941Y-98014390D01*
X188991725Y-97890899D01*
X188952192Y-97822135D01*
X188883153Y-97634660D01*
X188868400Y-97458723D01*
X188907730Y-97296212D01*
X189000937Y-97149010D01*
X189028711Y-97118807D01*
X189168564Y-97015234D01*
X189255023Y-96984000D01*
X188415778Y-96984000D01*
X188415778Y-99044222D01*
X187145778Y-99044222D01*
X187145778Y-98677333D01*
X188020667Y-98677333D01*
X188020667Y-98141111D01*
X187230445Y-98141111D01*
X187230445Y-97774222D01*
X188020667Y-97774222D01*
X188020667Y-97350889D01*
X187145778Y-97350889D01*
X187145778Y-96984000D01*
X188415778Y-96984000D01*
X189255023Y-96984000D01*
X189343512Y-96952033D01*
X189548380Y-96930023D01*
X189777993Y-96950026D01*
X189911556Y-96978870D01*
X190095000Y-97026333D01*
X190103294Y-97214592D01*
X190111588Y-97402852D01*
X189967250Y-97348007D01*
X189777219Y-97291168D01*
X189609220Y-97271529D01*
X189468876Y-97288369D01*
X189361810Y-97340967D01*
X189293644Y-97428604D01*
X189291025Y-97434691D01*
X189267885Y-97507630D01*
X189262768Y-97580061D01*
X189278876Y-97657541D01*
X189319409Y-97745631D01*
X189387566Y-97849890D01*
X189486549Y-97975879D01*
X189619558Y-98129157D01*
X189789792Y-98315283D01*
X189811088Y-98338173D01*
X190165556Y-98718679D01*
X190476000Y-98718679D01*
X190476000Y-98705556D01*
X190927556Y-98705556D01*
X190927556Y-96977267D01*
X191188611Y-96992084D01*
X191326172Y-97004303D01*
X191462201Y-97023757D01*
X191572868Y-97046838D01*
X191597833Y-97054017D01*
X191746000Y-97101135D01*
X191746000Y-97268345D01*
X191744905Y-97357038D01*
X191742061Y-97417667D01*
X191738855Y-97435556D01*
X191710313Y-97428387D01*
X191641650Y-97409478D01*
X191546980Y-97382723D01*
X191534334Y-97379111D01*
X191437457Y-97351666D01*
X191364865Y-97331591D01*
X191330672Y-97322782D01*
X191329812Y-97322667D01*
X191327840Y-97349617D01*
X191326077Y-97425377D01*
X191324600Y-97542315D01*
X191323491Y-97692797D01*
X191322826Y-97869189D01*
X191322667Y-98014111D01*
X191322667Y-98705556D01*
X191774222Y-98705556D01*
X193100667Y-98705556D01*
X193100667Y-98290051D01*
X192847202Y-98275599D01*
X192623000Y-98247864D01*
X192445707Y-98191368D01*
X192312286Y-98103641D01*
X192219697Y-97982215D01*
X192164904Y-97824619D01*
X192148584Y-97707725D01*
X192152930Y-97499236D01*
X192201861Y-97325329D01*
X192295424Y-97185911D01*
X192433667Y-97080889D01*
X192478846Y-97058332D01*
X192538012Y-97035102D01*
X192604939Y-97018127D01*
X192690517Y-97006090D01*
X192805640Y-96997675D01*
X192961200Y-96991564D01*
X193051278Y-96989115D01*
X193495778Y-96978086D01*
X193495778Y-99044222D01*
X194352644Y-99044222D01*
X194342445Y-99042146D01*
X194169178Y-98979071D01*
X194037949Y-98878329D01*
X193948761Y-98739924D01*
X193901621Y-98563864D01*
X193897045Y-98521890D01*
X193900413Y-98336650D01*
X193946467Y-98178948D01*
X194038078Y-98045097D01*
X194178113Y-97931413D01*
X194369444Y-97834208D01*
X194459301Y-97799714D01*
X194580214Y-97752534D01*
X194686704Y-97703716D01*
X194763316Y-97660682D01*
X194786945Y-97642340D01*
X194839182Y-97557839D01*
X194842328Y-97468366D01*
X194800929Y-97386518D01*
X194719536Y-97324891D01*
X194665359Y-97305622D01*
X194550037Y-97296095D01*
X194406522Y-97312770D01*
X194254718Y-97352308D01*
X194155606Y-97391146D01*
X194001346Y-97461769D01*
X194009617Y-97258950D01*
X194017889Y-97056131D01*
X194159000Y-97003774D01*
X194355608Y-96950497D01*
X194553546Y-96932375D01*
X194741266Y-96948151D01*
X194907219Y-96996566D01*
X195039858Y-97076363D01*
X195068148Y-97102801D01*
X195174263Y-97249075D01*
X195233546Y-97413851D01*
X195244148Y-97585657D01*
X195204219Y-97753017D01*
X195180945Y-97802859D01*
X195094244Y-97912301D01*
X194954716Y-98015519D01*
X194765835Y-98110296D01*
X194604296Y-98171038D01*
X194455488Y-98237089D01*
X194352842Y-98317727D01*
X194298845Y-98408563D01*
X194295984Y-98505206D01*
X194346749Y-98603266D01*
X194354246Y-98612260D01*
X194392641Y-98652226D01*
X194432753Y-98675755D01*
X194490185Y-98687049D01*
X194580539Y-98690308D01*
X194643775Y-98690233D01*
X194774165Y-98685555D01*
X194875863Y-98669188D01*
X194976333Y-98635110D01*
X195055306Y-98599994D01*
X195245556Y-98510965D01*
X196487333Y-98510965D01*
X196487333Y-98141111D01*
X195697111Y-98141111D01*
X195697111Y-97774222D01*
X196487333Y-97774222D01*
X196487333Y-97350889D01*
X195612445Y-97350889D01*
X195612445Y-96984000D01*
X196882445Y-96984000D01*
X196995333Y-96984000D01*
X196995333Y-95742222D01*
X196910667Y-95742222D01*
X196515556Y-95742222D01*
X196515556Y-94923778D01*
X196420584Y-94923778D01*
X196350675Y-94931817D01*
X196288918Y-94960373D01*
X196229552Y-95016099D01*
X196166812Y-95105652D01*
X196094937Y-95235686D01*
X196021667Y-95384456D01*
X195852333Y-95739173D01*
X195618078Y-95740698D01*
X195383822Y-95742222D01*
X195609336Y-95311833D01*
X195687414Y-95165286D01*
X195760590Y-95032447D01*
X195823285Y-94923109D01*
X195869915Y-94847069D01*
X195890605Y-94818214D01*
X195946360Y-94754984D01*
X195820901Y-94699487D01*
X195727216Y-94645636D01*
X195665960Y-94572776D01*
X195640452Y-94522829D01*
X195592250Y-94358039D01*
X195588555Y-94186972D01*
X195627482Y-94024720D01*
X195707145Y-93886372D01*
X195722118Y-93869024D01*
X195781198Y-93811323D01*
X195845219Y-93767943D01*
X195923479Y-93736576D01*
X196025280Y-93714912D01*
X196159919Y-93700645D01*
X196336696Y-93691466D01*
X196452056Y-93687836D01*
X196910667Y-93675373D01*
X196910667Y-95742222D01*
X196995333Y-95742222D01*
X196995333Y-93625556D01*
X195845278Y-93627981D01*
X195579022Y-93629100D01*
X195343508Y-93631207D01*
X195142872Y-93634201D01*
X194981247Y-93637980D01*
X194862771Y-93642442D01*
X194791578Y-93647487D01*
X194771803Y-93653012D01*
X194774669Y-93654254D01*
X194927161Y-93728623D01*
X195053190Y-93850474D01*
X195151450Y-94016762D01*
X195220633Y-94224439D01*
X195259433Y-94470459D01*
X195266543Y-94751775D01*
X195264798Y-94796778D01*
X195246448Y-95026024D01*
X195213269Y-95210782D01*
X195162359Y-95361735D01*
X195090814Y-95489564D01*
X195068030Y-95520914D01*
X194971533Y-95630657D01*
X194872209Y-95701627D01*
X194754422Y-95740925D01*
X194602535Y-95755647D01*
X194549487Y-95756333D01*
X194430446Y-95754454D01*
X194349168Y-95745798D01*
X194287017Y-95725839D01*
X194225354Y-95690047D01*
X194197377Y-95670794D01*
X194056405Y-95537270D01*
X193950001Y-95359208D01*
X193878208Y-95136726D01*
X193841070Y-94869941D01*
X193835425Y-94698000D01*
X193851960Y-94413475D01*
X193901044Y-94169880D01*
X193981897Y-93968859D01*
X194093737Y-93812057D01*
X194235783Y-93701120D01*
X194328333Y-93659607D01*
X194341170Y-93650122D01*
X194316746Y-93642702D01*
X194251425Y-93637176D01*
X194141569Y-93633370D01*
X193983541Y-93631114D01*
X193773704Y-93630233D01*
X193707445Y-93630209D01*
X193495871Y-93631144D01*
X193323075Y-93633720D01*
X193192900Y-93637789D01*
X193109192Y-93643205D01*
X193075793Y-93649820D01*
X193081335Y-93654254D01*
X193233827Y-93728623D01*
X193359857Y-93850474D01*
X193458117Y-94016762D01*
X193527300Y-94224439D01*
X193566100Y-94470459D01*
X193573210Y-94751775D01*
X193571465Y-94796778D01*
X193553114Y-95026024D01*
X193519935Y-95210782D01*
X193469025Y-95361735D01*
X193397481Y-95489564D01*
X193374696Y-95520914D01*
X193278200Y-95630657D01*
X193178876Y-95701627D01*
X193061089Y-95740925D01*
X192909201Y-95755647D01*
X192856154Y-95756333D01*
X192737113Y-95754454D01*
X192655835Y-95745798D01*
X192593683Y-95725839D01*
X192532021Y-95690047D01*
X192504043Y-95670794D01*
X192363072Y-95537270D01*
X192256667Y-95359208D01*
X192184875Y-95136726D01*
X192147737Y-94869941D01*
X192142091Y-94698000D01*
X192158626Y-94413475D01*
X192207711Y-94169880D01*
X192288563Y-93968859D01*
X192400403Y-93812057D01*
X192542450Y-93701120D01*
X192585076Y-93682000D01*
X191915333Y-93682000D01*
X191915333Y-95742222D01*
X191576667Y-95742222D01*
X191574393Y-94930833D01*
X191572118Y-94119444D01*
X191468026Y-94542778D01*
X191363933Y-94966111D01*
X191028263Y-94966111D01*
X190923076Y-94542778D01*
X190817889Y-94119444D01*
X190814667Y-95742222D01*
X190476000Y-95742222D01*
X190476000Y-93682000D01*
X190165556Y-93682000D01*
X190165556Y-95742222D01*
X189735167Y-95741532D01*
X189573508Y-95739373D01*
X189421445Y-95733908D01*
X189292806Y-95725874D01*
X189201416Y-95716009D01*
X189178965Y-95711849D01*
X189004906Y-95658226D01*
X188879966Y-95584982D01*
X188798193Y-95484870D01*
X188753633Y-95350640D01*
X188740333Y-95177778D01*
X188750215Y-95013901D01*
X188784368Y-94891446D01*
X188849551Y-94798173D01*
X188952527Y-94721844D01*
X189008763Y-94691850D01*
X189089324Y-94649156D01*
X189120697Y-94624381D01*
X189106170Y-94614646D01*
X189097345Y-94614239D01*
X189024250Y-94589403D01*
X188946006Y-94526901D01*
X188876926Y-94442050D01*
X188831328Y-94350164D01*
X188824050Y-94321860D01*
X188815047Y-94153026D01*
X188850665Y-93999603D01*
X188927860Y-93874252D01*
X188932983Y-93868708D01*
X189008128Y-93802971D01*
X189098464Y-93753644D01*
X189212359Y-93718806D01*
X189358181Y-93696541D01*
X189544297Y-93684929D01*
X189747345Y-93682000D01*
X190165556Y-93682000D01*
X190476000Y-93682000D01*
X190953602Y-93682000D01*
X190985540Y-93801944D01*
X191005781Y-93877369D01*
X191036502Y-93991130D01*
X191073341Y-94127107D01*
X191107725Y-94253684D01*
X191197972Y-94585480D01*
X191233398Y-94451240D01*
X191255552Y-94368324D01*
X191287892Y-94248578D01*
X191325651Y-94109599D01*
X191355710Y-93999500D01*
X191442596Y-93682000D01*
X191915333Y-93682000D01*
X192585076Y-93682000D01*
X192635000Y-93659607D01*
X192630704Y-93654366D01*
X192585322Y-93649650D01*
X192497383Y-93645440D01*
X192365421Y-93641721D01*
X192187966Y-93638475D01*
X191963548Y-93635687D01*
X191690701Y-93633338D01*
X191367953Y-93631413D01*
X190993838Y-93629894D01*
X190566886Y-93628765D01*
X190085628Y-93628009D01*
X189848056Y-93627784D01*
X186976445Y-93625556D01*
X186979718Y-94662722D01*
X186979718Y-94662722D01*
G37*
X186979718Y-94662722D02*
X186980784Y-94896249D01*
X186982392Y-95109165D01*
X186984447Y-95295570D01*
X186986858Y-95449569D01*
X186989530Y-95565262D01*
X186992369Y-95636752D01*
X186995282Y-95658140D01*
X186995503Y-95657556D01*
X187005597Y-95621222D01*
X187028683Y-95536920D01*
X187062986Y-95411161D01*
X187106736Y-95250456D01*
X187158158Y-95061316D01*
X187215480Y-94850252D01*
X187268280Y-94655667D01*
X187528546Y-93696111D01*
X188034096Y-93696111D01*
X188293451Y-94655667D01*
X188354490Y-94881550D01*
X188411363Y-95092104D01*
X188462260Y-95280629D01*
X188505375Y-95440424D01*
X188538898Y-95564791D01*
X188561023Y-95647029D01*
X188569496Y-95678722D01*
X188575161Y-95711278D01*
X188563487Y-95730234D01*
X188523471Y-95739262D01*
X188444110Y-95742034D01*
X188379217Y-95742222D01*
X188172248Y-95742222D01*
X188117624Y-95495278D01*
X188063000Y-95248333D01*
X187515874Y-95232217D01*
X187486999Y-95336793D01*
X187463397Y-95427814D01*
X187436433Y-95539523D01*
X187424460Y-95591796D01*
X187390796Y-95742222D01*
X186976445Y-95742222D01*
X186977303Y-99023056D01*
X186977612Y-99447367D01*
X186978296Y-99855000D01*
X186979329Y-100242511D01*
X186980685Y-100606455D01*
X186982338Y-100943389D01*
X186984262Y-101249867D01*
X186986432Y-101522445D01*
X186988820Y-101757679D01*
X186991402Y-101952125D01*
X186994151Y-102102339D01*
X186997041Y-102204875D01*
X187000047Y-102256290D01*
X187001725Y-102261556D01*
X187134318Y-102020966D01*
X187255255Y-101796852D01*
X187362129Y-101593989D01*
X187452535Y-101417156D01*
X187524067Y-101271130D01*
X187574319Y-101160688D01*
X187600885Y-101090610D01*
X187603419Y-101066754D01*
X187577960Y-101034410D01*
X187523772Y-100966245D01*
X187447415Y-100870488D01*
X187355450Y-100755371D01*
X187291521Y-100675449D01*
X187195150Y-100554123D01*
X187112567Y-100448427D01*
X187049678Y-100366062D01*
X187012389Y-100314724D01*
X187004667Y-100301505D01*
X187030626Y-100294208D01*
X187099467Y-100288757D01*
X187197634Y-100286111D01*
X187223842Y-100286000D01*
X187443017Y-100286000D01*
X187753008Y-100685658D01*
X188063000Y-101085316D01*
X188070831Y-100685658D01*
X188078661Y-100286000D01*
X188472222Y-100286000D01*
X188472222Y-102346222D01*
X188077111Y-102346222D01*
X188077111Y-101650927D01*
X187986722Y-101533321D01*
X187896333Y-101415714D01*
X187413889Y-102343632D01*
X187188111Y-102353294D01*
X187165062Y-102355473D01*
X187193949Y-102357643D01*
X187270263Y-102359735D01*
X187389497Y-102361682D01*
X187547143Y-102363414D01*
X187738691Y-102364865D01*
X187959634Y-102365966D01*
X188048889Y-102366274D01*
X188286793Y-102366465D01*
X188503080Y-102365599D01*
X188692188Y-102363778D01*
X188848557Y-102361103D01*
X188966626Y-102357676D01*
X189040834Y-102353599D01*
X189065619Y-102348975D01*
X189063241Y-102347683D01*
X188970700Y-102316575D01*
X188913099Y-102282751D01*
X188882177Y-102232812D01*
X188869675Y-102153359D01*
X188867334Y-102030992D01*
X188867333Y-102029865D01*
X188867333Y-101800161D01*
X188930833Y-101858224D01*
X189065984Y-101950673D01*
X189212387Y-101997080D01*
X189358572Y-101995848D01*
X189493071Y-101945377D01*
X189504566Y-101938132D01*
X189585312Y-101863010D01*
X189643138Y-101755228D01*
X189679912Y-101608690D01*
X189697506Y-101417301D01*
X189699695Y-101302000D01*
X189698407Y-101154335D01*
X189692929Y-101048493D01*
X189681152Y-100969891D01*
X189660968Y-100903947D01*
X189633163Y-100841926D01*
X189558503Y-100722008D01*
X189469249Y-100648127D01*
X189351229Y-100609876D01*
X189309048Y-100603900D01*
X189159707Y-100614939D01*
X189014401Y-100680608D01*
X188930833Y-100745776D01*
X188867333Y-100803839D01*
X188867333Y-100343894D01*
X188957780Y-100297122D01*
X189086231Y-100254143D01*
X189245544Y-100235644D01*
X189415312Y-100242502D01*
X189560556Y-100271192D01*
X189734128Y-100350228D01*
X189884040Y-100476300D01*
X190003170Y-100642476D01*
X190054252Y-100751667D01*
X190082011Y-100829479D01*
X190100835Y-100904371D01*
X190112389Y-100990178D01*
X190118337Y-101100739D01*
X190120341Y-101249889D01*
X190120423Y-101302000D01*
X190119266Y-101464514D01*
X190114684Y-101584406D01*
X190105008Y-101675468D01*
X190088569Y-101751497D01*
X190063700Y-101826286D01*
X190053948Y-101851551D01*
X189955694Y-102037146D01*
X189824555Y-102186259D01*
X189667718Y-102291477D01*
X189600615Y-102319195D01*
X189579321Y-102326800D01*
X189563577Y-102333647D01*
X189556085Y-102339778D01*
X189559543Y-102345231D01*
X189576654Y-102350049D01*
X189610116Y-102354271D01*
X189662631Y-102357938D01*
X189736899Y-102361091D01*
X189835620Y-102363769D01*
X189961494Y-102366014D01*
X190117222Y-102367867D01*
X190305505Y-102369367D01*
X190529042Y-102370555D01*
X190790534Y-102371472D01*
X191092682Y-102372158D01*
X191438185Y-102372653D01*
X191829745Y-102372999D01*
X192270061Y-102373236D01*
X192761834Y-102373404D01*
X193220611Y-102373523D01*
X196995333Y-102374444D01*
X196992733Y-101605389D01*
X196990132Y-100836333D01*
X196839781Y-101302000D01*
X196781661Y-101482533D01*
X196721459Y-101670436D01*
X196664756Y-101848228D01*
X196617135Y-101998426D01*
X196598716Y-102056944D01*
X196508003Y-102346222D01*
X196259681Y-102346222D01*
X196138032Y-102344705D01*
X196061617Y-102338756D01*
X196019273Y-102326278D01*
X195999839Y-102305174D01*
X195996803Y-102296833D01*
X195981090Y-102245277D01*
X195952105Y-102151820D01*
X195912590Y-102025174D01*
X195907076Y-102007556D01*
X195160889Y-102007556D01*
X195160889Y-102346222D01*
X193862667Y-102346222D01*
X193862667Y-102007556D01*
X194314222Y-102007556D01*
X194314222Y-100286000D01*
X193552222Y-100286000D01*
X193552222Y-102346222D01*
X193121833Y-102345532D01*
X192960175Y-102343373D01*
X192808112Y-102337908D01*
X192679472Y-102329874D01*
X192588083Y-102320009D01*
X192565631Y-102315849D01*
X192563778Y-102315278D01*
X191961827Y-102315278D01*
X191950154Y-102334234D01*
X191910138Y-102343262D01*
X191830776Y-102346034D01*
X191765884Y-102346222D01*
X191558914Y-102346222D01*
X191504291Y-102099278D01*
X191449667Y-101852333D01*
X191176104Y-101844275D01*
X190902540Y-101836217D01*
X190873665Y-101940793D01*
X190850064Y-102031814D01*
X190823100Y-102143523D01*
X190811127Y-102195796D01*
X190777463Y-102346222D01*
X190569749Y-102346222D01*
X190463633Y-102345340D01*
X190402967Y-102340260D01*
X190376758Y-102327328D01*
X190374017Y-102302893D01*
X190378660Y-102282722D01*
X190389749Y-102241293D01*
X190413794Y-102152083D01*
X190448984Y-102021791D01*
X190493508Y-101857116D01*
X190545555Y-101664754D01*
X190603314Y-101451405D01*
X190655249Y-101259667D01*
X190915213Y-100300111D01*
X191420763Y-100300111D01*
X191680117Y-101259667D01*
X191741157Y-101485550D01*
X191798030Y-101696104D01*
X191848927Y-101884629D01*
X191892041Y-102044424D01*
X191925565Y-102168791D01*
X191947690Y-102251029D01*
X191956162Y-102282722D01*
X191961827Y-102315278D01*
X192563778Y-102315278D01*
X192391573Y-102262226D01*
X192266633Y-102188982D01*
X192184859Y-102088870D01*
X192140300Y-101954640D01*
X192127000Y-101781778D01*
X192136882Y-101617901D01*
X192171034Y-101495446D01*
X192236218Y-101402173D01*
X192339194Y-101325844D01*
X192395429Y-101295850D01*
X192475990Y-101253156D01*
X192507364Y-101228381D01*
X192492836Y-101218646D01*
X192484011Y-101218239D01*
X192410917Y-101193403D01*
X192332672Y-101130901D01*
X192263593Y-101046050D01*
X192217995Y-100954164D01*
X192210716Y-100925860D01*
X192201714Y-100757026D01*
X192237332Y-100603603D01*
X192314527Y-100478252D01*
X192319650Y-100472708D01*
X192394795Y-100406971D01*
X192485131Y-100357644D01*
X192599026Y-100322806D01*
X192744848Y-100300541D01*
X192930964Y-100288929D01*
X193134011Y-100286000D01*
X193552222Y-100286000D01*
X194314222Y-100286000D01*
X194314222Y-100279267D01*
X194575278Y-100294084D01*
X194712838Y-100306303D01*
X194848868Y-100325757D01*
X194959534Y-100348838D01*
X194984500Y-100356017D01*
X195132667Y-100403135D01*
X195132667Y-100570345D01*
X195131571Y-100659038D01*
X195128727Y-100719667D01*
X195125521Y-100737556D01*
X195096980Y-100730387D01*
X195028317Y-100711478D01*
X194933647Y-100684723D01*
X194921000Y-100681111D01*
X194824123Y-100653666D01*
X194751531Y-100633591D01*
X194717339Y-100624782D01*
X194716479Y-100624667D01*
X194714507Y-100651617D01*
X194712743Y-100727377D01*
X194711267Y-100844315D01*
X194710157Y-100994797D01*
X194709492Y-101171189D01*
X194709333Y-101316111D01*
X194709333Y-102007556D01*
X195160889Y-102007556D01*
X195907076Y-102007556D01*
X195865285Y-101874049D01*
X195812928Y-101707157D01*
X195758262Y-101533211D01*
X195704024Y-101360922D01*
X195652957Y-101199000D01*
X195607799Y-101056158D01*
X195571291Y-100941108D01*
X195546173Y-100862560D01*
X195535204Y-100829278D01*
X195543450Y-100810133D01*
X195590981Y-100798910D01*
X195685026Y-100794296D01*
X195729502Y-100794000D01*
X195937265Y-100794000D01*
X196091535Y-101372556D01*
X196137885Y-101543671D01*
X196180177Y-101694703D01*
X196216073Y-101817709D01*
X196243233Y-101904744D01*
X196259319Y-101947864D01*
X196261889Y-101951111D01*
X196273570Y-101925123D01*
X196297128Y-101852456D01*
X196330224Y-101741056D01*
X196370521Y-101598871D01*
X196415681Y-101433845D01*
X196432042Y-101372769D01*
X196586111Y-100794427D01*
X196790722Y-100794213D01*
X196995333Y-100794000D01*
X196995333Y-96984000D01*
X196882445Y-96984000D01*
X196882445Y-99044222D01*
X195612445Y-99044222D01*
X195612445Y-98677333D01*
X196487333Y-98677333D01*
X196487333Y-98510965D01*
X195245556Y-98510965D01*
X195245556Y-98720156D01*
X195243641Y-98830385D01*
X195231199Y-98903573D01*
X195198186Y-98951008D01*
X195134557Y-98983980D01*
X195030267Y-99013776D01*
X194971488Y-99028164D01*
X194774423Y-99060347D01*
X194567845Y-99067659D01*
X194378598Y-99049505D01*
X194352644Y-99044222D01*
X193495778Y-99044222D01*
X193100667Y-99044222D01*
X193100667Y-98705556D01*
X191774222Y-98705556D01*
X191774222Y-99044222D01*
X190476000Y-99044222D01*
X190476000Y-98718679D01*
X190165556Y-98718679D01*
X190165556Y-99044222D01*
X188867333Y-99044222D01*
X188867333Y-98705556D01*
X189719171Y-98705556D01*
X189378111Y-98348754D01*
X189208791Y-98165839D01*
X189080941Y-98014390D01*
X188991725Y-97890899D01*
X188952192Y-97822135D01*
X188883153Y-97634660D01*
X188868400Y-97458723D01*
X188907730Y-97296212D01*
X189000937Y-97149010D01*
X189028711Y-97118807D01*
X189168564Y-97015234D01*
X189255023Y-96984000D01*
X188415778Y-96984000D01*
X188415778Y-99044222D01*
X187145778Y-99044222D01*
X187145778Y-98677333D01*
X188020667Y-98677333D01*
X188020667Y-98141111D01*
X187230445Y-98141111D01*
X187230445Y-97774222D01*
X188020667Y-97774222D01*
X188020667Y-97350889D01*
X187145778Y-97350889D01*
X187145778Y-96984000D01*
X188415778Y-96984000D01*
X189255023Y-96984000D01*
X189343512Y-96952033D01*
X189548380Y-96930023D01*
X189777993Y-96950026D01*
X189911556Y-96978870D01*
X190095000Y-97026333D01*
X190103294Y-97214592D01*
X190111588Y-97402852D01*
X189967250Y-97348007D01*
X189777219Y-97291168D01*
X189609220Y-97271529D01*
X189468876Y-97288369D01*
X189361810Y-97340967D01*
X189293644Y-97428604D01*
X189291025Y-97434691D01*
X189267885Y-97507630D01*
X189262768Y-97580061D01*
X189278876Y-97657541D01*
X189319409Y-97745631D01*
X189387566Y-97849890D01*
X189486549Y-97975879D01*
X189619558Y-98129157D01*
X189789792Y-98315283D01*
X189811088Y-98338173D01*
X190165556Y-98718679D01*
X190476000Y-98718679D01*
X190476000Y-98705556D01*
X190927556Y-98705556D01*
X190927556Y-96977267D01*
X191188611Y-96992084D01*
X191326172Y-97004303D01*
X191462201Y-97023757D01*
X191572868Y-97046838D01*
X191597833Y-97054017D01*
X191746000Y-97101135D01*
X191746000Y-97268345D01*
X191744905Y-97357038D01*
X191742061Y-97417667D01*
X191738855Y-97435556D01*
X191710313Y-97428387D01*
X191641650Y-97409478D01*
X191546980Y-97382723D01*
X191534334Y-97379111D01*
X191437457Y-97351666D01*
X191364865Y-97331591D01*
X191330672Y-97322782D01*
X191329812Y-97322667D01*
X191327840Y-97349617D01*
X191326077Y-97425377D01*
X191324600Y-97542315D01*
X191323491Y-97692797D01*
X191322826Y-97869189D01*
X191322667Y-98014111D01*
X191322667Y-98705556D01*
X191774222Y-98705556D01*
X193100667Y-98705556D01*
X193100667Y-98290051D01*
X192847202Y-98275599D01*
X192623000Y-98247864D01*
X192445707Y-98191368D01*
X192312286Y-98103641D01*
X192219697Y-97982215D01*
X192164904Y-97824619D01*
X192148584Y-97707725D01*
X192152930Y-97499236D01*
X192201861Y-97325329D01*
X192295424Y-97185911D01*
X192433667Y-97080889D01*
X192478846Y-97058332D01*
X192538012Y-97035102D01*
X192604939Y-97018127D01*
X192690517Y-97006090D01*
X192805640Y-96997675D01*
X192961200Y-96991564D01*
X193051278Y-96989115D01*
X193495778Y-96978086D01*
X193495778Y-99044222D01*
X194352644Y-99044222D01*
X194342445Y-99042146D01*
X194169178Y-98979071D01*
X194037949Y-98878329D01*
X193948761Y-98739924D01*
X193901621Y-98563864D01*
X193897045Y-98521890D01*
X193900413Y-98336650D01*
X193946467Y-98178948D01*
X194038078Y-98045097D01*
X194178113Y-97931413D01*
X194369444Y-97834208D01*
X194459301Y-97799714D01*
X194580214Y-97752534D01*
X194686704Y-97703716D01*
X194763316Y-97660682D01*
X194786945Y-97642340D01*
X194839182Y-97557839D01*
X194842328Y-97468366D01*
X194800929Y-97386518D01*
X194719536Y-97324891D01*
X194665359Y-97305622D01*
X194550037Y-97296095D01*
X194406522Y-97312770D01*
X194254718Y-97352308D01*
X194155606Y-97391146D01*
X194001346Y-97461769D01*
X194009617Y-97258950D01*
X194017889Y-97056131D01*
X194159000Y-97003774D01*
X194355608Y-96950497D01*
X194553546Y-96932375D01*
X194741266Y-96948151D01*
X194907219Y-96996566D01*
X195039858Y-97076363D01*
X195068148Y-97102801D01*
X195174263Y-97249075D01*
X195233546Y-97413851D01*
X195244148Y-97585657D01*
X195204219Y-97753017D01*
X195180945Y-97802859D01*
X195094244Y-97912301D01*
X194954716Y-98015519D01*
X194765835Y-98110296D01*
X194604296Y-98171038D01*
X194455488Y-98237089D01*
X194352842Y-98317727D01*
X194298845Y-98408563D01*
X194295984Y-98505206D01*
X194346749Y-98603266D01*
X194354246Y-98612260D01*
X194392641Y-98652226D01*
X194432753Y-98675755D01*
X194490185Y-98687049D01*
X194580539Y-98690308D01*
X194643775Y-98690233D01*
X194774165Y-98685555D01*
X194875863Y-98669188D01*
X194976333Y-98635110D01*
X195055306Y-98599994D01*
X195245556Y-98510965D01*
X196487333Y-98510965D01*
X196487333Y-98141111D01*
X195697111Y-98141111D01*
X195697111Y-97774222D01*
X196487333Y-97774222D01*
X196487333Y-97350889D01*
X195612445Y-97350889D01*
X195612445Y-96984000D01*
X196882445Y-96984000D01*
X196995333Y-96984000D01*
X196995333Y-95742222D01*
X196910667Y-95742222D01*
X196515556Y-95742222D01*
X196515556Y-94923778D01*
X196420584Y-94923778D01*
X196350675Y-94931817D01*
X196288918Y-94960373D01*
X196229552Y-95016099D01*
X196166812Y-95105652D01*
X196094937Y-95235686D01*
X196021667Y-95384456D01*
X195852333Y-95739173D01*
X195618078Y-95740698D01*
X195383822Y-95742222D01*
X195609336Y-95311833D01*
X195687414Y-95165286D01*
X195760590Y-95032447D01*
X195823285Y-94923109D01*
X195869915Y-94847069D01*
X195890605Y-94818214D01*
X195946360Y-94754984D01*
X195820901Y-94699487D01*
X195727216Y-94645636D01*
X195665960Y-94572776D01*
X195640452Y-94522829D01*
X195592250Y-94358039D01*
X195588555Y-94186972D01*
X195627482Y-94024720D01*
X195707145Y-93886372D01*
X195722118Y-93869024D01*
X195781198Y-93811323D01*
X195845219Y-93767943D01*
X195923479Y-93736576D01*
X196025280Y-93714912D01*
X196159919Y-93700645D01*
X196336696Y-93691466D01*
X196452056Y-93687836D01*
X196910667Y-93675373D01*
X196910667Y-95742222D01*
X196995333Y-95742222D01*
X196995333Y-93625556D01*
X195845278Y-93627981D01*
X195579022Y-93629100D01*
X195343508Y-93631207D01*
X195142872Y-93634201D01*
X194981247Y-93637980D01*
X194862771Y-93642442D01*
X194791578Y-93647487D01*
X194771803Y-93653012D01*
X194774669Y-93654254D01*
X194927161Y-93728623D01*
X195053190Y-93850474D01*
X195151450Y-94016762D01*
X195220633Y-94224439D01*
X195259433Y-94470459D01*
X195266543Y-94751775D01*
X195264798Y-94796778D01*
X195246448Y-95026024D01*
X195213269Y-95210782D01*
X195162359Y-95361735D01*
X195090814Y-95489564D01*
X195068030Y-95520914D01*
X194971533Y-95630657D01*
X194872209Y-95701627D01*
X194754422Y-95740925D01*
X194602535Y-95755647D01*
X194549487Y-95756333D01*
X194430446Y-95754454D01*
X194349168Y-95745798D01*
X194287017Y-95725839D01*
X194225354Y-95690047D01*
X194197377Y-95670794D01*
X194056405Y-95537270D01*
X193950001Y-95359208D01*
X193878208Y-95136726D01*
X193841070Y-94869941D01*
X193835425Y-94698000D01*
X193851960Y-94413475D01*
X193901044Y-94169880D01*
X193981897Y-93968859D01*
X194093737Y-93812057D01*
X194235783Y-93701120D01*
X194328333Y-93659607D01*
X194341170Y-93650122D01*
X194316746Y-93642702D01*
X194251425Y-93637176D01*
X194141569Y-93633370D01*
X193983541Y-93631114D01*
X193773704Y-93630233D01*
X193707445Y-93630209D01*
X193495871Y-93631144D01*
X193323075Y-93633720D01*
X193192900Y-93637789D01*
X193109192Y-93643205D01*
X193075793Y-93649820D01*
X193081335Y-93654254D01*
X193233827Y-93728623D01*
X193359857Y-93850474D01*
X193458117Y-94016762D01*
X193527300Y-94224439D01*
X193566100Y-94470459D01*
X193573210Y-94751775D01*
X193571465Y-94796778D01*
X193553114Y-95026024D01*
X193519935Y-95210782D01*
X193469025Y-95361735D01*
X193397481Y-95489564D01*
X193374696Y-95520914D01*
X193278200Y-95630657D01*
X193178876Y-95701627D01*
X193061089Y-95740925D01*
X192909201Y-95755647D01*
X192856154Y-95756333D01*
X192737113Y-95754454D01*
X192655835Y-95745798D01*
X192593683Y-95725839D01*
X192532021Y-95690047D01*
X192504043Y-95670794D01*
X192363072Y-95537270D01*
X192256667Y-95359208D01*
X192184875Y-95136726D01*
X192147737Y-94869941D01*
X192142091Y-94698000D01*
X192158626Y-94413475D01*
X192207711Y-94169880D01*
X192288563Y-93968859D01*
X192400403Y-93812057D01*
X192542450Y-93701120D01*
X192585076Y-93682000D01*
X191915333Y-93682000D01*
X191915333Y-95742222D01*
X191576667Y-95742222D01*
X191574393Y-94930833D01*
X191572118Y-94119444D01*
X191468026Y-94542778D01*
X191363933Y-94966111D01*
X191028263Y-94966111D01*
X190923076Y-94542778D01*
X190817889Y-94119444D01*
X190814667Y-95742222D01*
X190476000Y-95742222D01*
X190476000Y-93682000D01*
X190165556Y-93682000D01*
X190165556Y-95742222D01*
X189735167Y-95741532D01*
X189573508Y-95739373D01*
X189421445Y-95733908D01*
X189292806Y-95725874D01*
X189201416Y-95716009D01*
X189178965Y-95711849D01*
X189004906Y-95658226D01*
X188879966Y-95584982D01*
X188798193Y-95484870D01*
X188753633Y-95350640D01*
X188740333Y-95177778D01*
X188750215Y-95013901D01*
X188784368Y-94891446D01*
X188849551Y-94798173D01*
X188952527Y-94721844D01*
X189008763Y-94691850D01*
X189089324Y-94649156D01*
X189120697Y-94624381D01*
X189106170Y-94614646D01*
X189097345Y-94614239D01*
X189024250Y-94589403D01*
X188946006Y-94526901D01*
X188876926Y-94442050D01*
X188831328Y-94350164D01*
X188824050Y-94321860D01*
X188815047Y-94153026D01*
X188850665Y-93999603D01*
X188927860Y-93874252D01*
X188932983Y-93868708D01*
X189008128Y-93802971D01*
X189098464Y-93753644D01*
X189212359Y-93718806D01*
X189358181Y-93696541D01*
X189544297Y-93684929D01*
X189747345Y-93682000D01*
X190165556Y-93682000D01*
X190476000Y-93682000D01*
X190953602Y-93682000D01*
X190985540Y-93801944D01*
X191005781Y-93877369D01*
X191036502Y-93991130D01*
X191073341Y-94127107D01*
X191107725Y-94253684D01*
X191197972Y-94585480D01*
X191233398Y-94451240D01*
X191255552Y-94368324D01*
X191287892Y-94248578D01*
X191325651Y-94109599D01*
X191355710Y-93999500D01*
X191442596Y-93682000D01*
X191915333Y-93682000D01*
X192585076Y-93682000D01*
X192635000Y-93659607D01*
X192630704Y-93654366D01*
X192585322Y-93649650D01*
X192497383Y-93645440D01*
X192365421Y-93641721D01*
X192187966Y-93638475D01*
X191963548Y-93635687D01*
X191690701Y-93633338D01*
X191367953Y-93631413D01*
X190993838Y-93629894D01*
X190566886Y-93628765D01*
X190085628Y-93628009D01*
X189848056Y-93627784D01*
X186976445Y-93625556D01*
X186979718Y-94662722D01*
G36*
X194426278Y-94046588D02*
X194347468Y-94141410D01*
X194328333Y-94176285D01*
X194305115Y-94230020D01*
X194289156Y-94290207D01*
X194279172Y-94368403D01*
X194273877Y-94476167D01*
X194271985Y-94625055D01*
X194271889Y-94683889D01*
X194274997Y-94887843D01*
X194285578Y-95044125D01*
X194305514Y-95161230D01*
X194336689Y-95247654D01*
X194380988Y-95311891D01*
X194418849Y-95346670D01*
X194517139Y-95396831D01*
X194614685Y-95390764D01*
X194677813Y-95357534D01*
X194741677Y-95292399D01*
X194788526Y-95194706D01*
X194820472Y-95057468D01*
X194839627Y-94873698D01*
X194843082Y-94810889D01*
X194845031Y-94552417D01*
X194824215Y-94344463D01*
X194780263Y-94185731D01*
X194712803Y-94074927D01*
X194621465Y-94010755D01*
X194612807Y-94007487D01*
X194516833Y-94000696D01*
X194426278Y-94046588D01*
X194426278Y-94046588D01*
G37*
X194426278Y-94046588D02*
X194347468Y-94141410D01*
X194328333Y-94176285D01*
X194305115Y-94230020D01*
X194289156Y-94290207D01*
X194279172Y-94368403D01*
X194273877Y-94476167D01*
X194271985Y-94625055D01*
X194271889Y-94683889D01*
X194274997Y-94887843D01*
X194285578Y-95044125D01*
X194305514Y-95161230D01*
X194336689Y-95247654D01*
X194380988Y-95311891D01*
X194418849Y-95346670D01*
X194517139Y-95396831D01*
X194614685Y-95390764D01*
X194677813Y-95357534D01*
X194741677Y-95292399D01*
X194788526Y-95194706D01*
X194820472Y-95057468D01*
X194839627Y-94873698D01*
X194843082Y-94810889D01*
X194845031Y-94552417D01*
X194824215Y-94344463D01*
X194780263Y-94185731D01*
X194712803Y-94074927D01*
X194621465Y-94010755D01*
X194612807Y-94007487D01*
X194516833Y-94000696D01*
X194426278Y-94046588D01*
G36*
X192732945Y-94046588D02*
X192654135Y-94141410D01*
X192635000Y-94176285D01*
X192611782Y-94230020D01*
X192595823Y-94290207D01*
X192585838Y-94368403D01*
X192580543Y-94476167D01*
X192578652Y-94625055D01*
X192578556Y-94683889D01*
X192581664Y-94887843D01*
X192592244Y-95044125D01*
X192612180Y-95161230D01*
X192643356Y-95247654D01*
X192687654Y-95311891D01*
X192725516Y-95346670D01*
X192823805Y-95396831D01*
X192921351Y-95390764D01*
X192984480Y-95357534D01*
X193048344Y-95292399D01*
X193095193Y-95194706D01*
X193127138Y-95057468D01*
X193146294Y-94873698D01*
X193149749Y-94810889D01*
X193151698Y-94552417D01*
X193130882Y-94344463D01*
X193086930Y-94185731D01*
X193019470Y-94074927D01*
X192928132Y-94010755D01*
X192919474Y-94007487D01*
X192823500Y-94000696D01*
X192732945Y-94046588D01*
X192732945Y-94046588D01*
G37*
X192732945Y-94046588D02*
X192654135Y-94141410D01*
X192635000Y-94176285D01*
X192611782Y-94230020D01*
X192595823Y-94290207D01*
X192585838Y-94368403D01*
X192580543Y-94476167D01*
X192578652Y-94625055D01*
X192578556Y-94683889D01*
X192581664Y-94887843D01*
X192592244Y-95044125D01*
X192612180Y-95161230D01*
X192643356Y-95247654D01*
X192687654Y-95311891D01*
X192725516Y-95346670D01*
X192823805Y-95396831D01*
X192921351Y-95390764D01*
X192984480Y-95357534D01*
X193048344Y-95292399D01*
X193095193Y-95194706D01*
X193127138Y-95057468D01*
X193146294Y-94873698D01*
X193149749Y-94810889D01*
X193151698Y-94552417D01*
X193130882Y-94344463D01*
X193086930Y-94185731D01*
X193019470Y-94074927D01*
X192928132Y-94010755D01*
X192919474Y-94007487D01*
X192823500Y-94000696D01*
X192732945Y-94046588D01*
G36*
X187691860Y-94435571D02*
X187658673Y-94578368D01*
X187630628Y-94702824D01*
X187610132Y-94797972D01*
X187599589Y-94852844D01*
X187598703Y-94860278D01*
X187619082Y-94881201D01*
X187685706Y-94892606D01*
X187784068Y-94895556D01*
X187883442Y-94894397D01*
X187938050Y-94888075D01*
X187959562Y-94872315D01*
X187959650Y-94842846D01*
X187957530Y-94832056D01*
X187946547Y-94781224D01*
X187926088Y-94688012D01*
X187898952Y-94565133D01*
X187867941Y-94425298D01*
X187863952Y-94407349D01*
X187783647Y-94046142D01*
X187691860Y-94435571D01*
X187691860Y-94435571D01*
G37*
X187691860Y-94435571D02*
X187658673Y-94578368D01*
X187630628Y-94702824D01*
X187610132Y-94797972D01*
X187599589Y-94852844D01*
X187598703Y-94860278D01*
X187619082Y-94881201D01*
X187685706Y-94892606D01*
X187784068Y-94895556D01*
X187883442Y-94894397D01*
X187938050Y-94888075D01*
X187959562Y-94872315D01*
X187959650Y-94842846D01*
X187957530Y-94832056D01*
X187946547Y-94781224D01*
X187926088Y-94688012D01*
X187898952Y-94565133D01*
X187867941Y-94425298D01*
X187863952Y-94407349D01*
X187783647Y-94046142D01*
X187691860Y-94435571D01*
G36*
X192779246Y-101427673D02*
X192645987Y-101465504D01*
X192560989Y-101527603D01*
X192536043Y-101570583D01*
X192508254Y-101706103D01*
X192527547Y-101830896D01*
X192576093Y-101914260D01*
X192612447Y-101952136D01*
X192651645Y-101976240D01*
X192707662Y-101990408D01*
X192794472Y-101998473D01*
X192900649Y-102003308D01*
X193157111Y-102013172D01*
X193157111Y-101414889D01*
X192958649Y-101414889D01*
X192779246Y-101427673D01*
X192779246Y-101427673D01*
G37*
X192779246Y-101427673D02*
X192645987Y-101465504D01*
X192560989Y-101527603D01*
X192536043Y-101570583D01*
X192508254Y-101706103D01*
X192527547Y-101830896D01*
X192576093Y-101914260D01*
X192612447Y-101952136D01*
X192651645Y-101976240D01*
X192707662Y-101990408D01*
X192794472Y-101998473D01*
X192900649Y-102003308D01*
X193157111Y-102013172D01*
X193157111Y-101414889D01*
X192958649Y-101414889D01*
X192779246Y-101427673D01*
G36*
X192928569Y-100629069D02*
X192810745Y-100636399D01*
X192734927Y-100647958D01*
X192686680Y-100667668D01*
X192651565Y-100699451D01*
X192646347Y-100705739D01*
X192598818Y-100804464D01*
X192602884Y-100908581D01*
X192657746Y-101002655D01*
X192661940Y-101006949D01*
X192704592Y-101043117D01*
X192753210Y-101064035D01*
X192824185Y-101073726D01*
X192933908Y-101076214D01*
X192944162Y-101076222D01*
X193157111Y-101076222D01*
X193157111Y-100618690D01*
X192928569Y-100629069D01*
X192928569Y-100629069D01*
G37*
X192928569Y-100629069D02*
X192810745Y-100636399D01*
X192734927Y-100647958D01*
X192686680Y-100667668D01*
X192651565Y-100699451D01*
X192646347Y-100705739D01*
X192598818Y-100804464D01*
X192602884Y-100908581D01*
X192657746Y-101002655D01*
X192661940Y-101006949D01*
X192704592Y-101043117D01*
X192753210Y-101064035D01*
X192824185Y-101073726D01*
X192933908Y-101076214D01*
X192944162Y-101076222D01*
X193157111Y-101076222D01*
X193157111Y-100618690D01*
X192928569Y-100629069D01*
G36*
X191078526Y-101039571D02*
X191045339Y-101182368D01*
X191017295Y-101306824D01*
X190996798Y-101401972D01*
X190986256Y-101456844D01*
X190985370Y-101464278D01*
X191005749Y-101485201D01*
X191072372Y-101496606D01*
X191170735Y-101499556D01*
X191270109Y-101498397D01*
X191324717Y-101492075D01*
X191346229Y-101476315D01*
X191346317Y-101446846D01*
X191344196Y-101436056D01*
X191333214Y-101385224D01*
X191312755Y-101292012D01*
X191285619Y-101169133D01*
X191254608Y-101029298D01*
X191250618Y-101011349D01*
X191170314Y-100650142D01*
X191078526Y-101039571D01*
X191078526Y-101039571D01*
G37*
X191078526Y-101039571D02*
X191045339Y-101182368D01*
X191017295Y-101306824D01*
X190996798Y-101401972D01*
X190986256Y-101456844D01*
X190985370Y-101464278D01*
X191005749Y-101485201D01*
X191072372Y-101496606D01*
X191170735Y-101499556D01*
X191270109Y-101498397D01*
X191324717Y-101492075D01*
X191346229Y-101476315D01*
X191346317Y-101446846D01*
X191344196Y-101436056D01*
X191333214Y-101385224D01*
X191312755Y-101292012D01*
X191285619Y-101169133D01*
X191254608Y-101029298D01*
X191250618Y-101011349D01*
X191170314Y-100650142D01*
X191078526Y-101039571D01*
G36*
X192899709Y-97355874D02*
X192789972Y-97364549D01*
X192719617Y-97379097D01*
X192671578Y-97405209D01*
X192631598Y-97445300D01*
X192574933Y-97549818D01*
X192564445Y-97633111D01*
X192588091Y-97753202D01*
X192631598Y-97820922D01*
X192674213Y-97863063D01*
X192723134Y-97888298D01*
X192795423Y-97902320D01*
X192899709Y-97910348D01*
X193100667Y-97921703D01*
X193100667Y-97344519D01*
X192899709Y-97355874D01*
X192899709Y-97355874D01*
G37*
X192899709Y-97355874D02*
X192789972Y-97364549D01*
X192719617Y-97379097D01*
X192671578Y-97405209D01*
X192631598Y-97445300D01*
X192574933Y-97549818D01*
X192564445Y-97633111D01*
X192588091Y-97753202D01*
X192631598Y-97820922D01*
X192674213Y-97863063D01*
X192723134Y-97888298D01*
X192795423Y-97902320D01*
X192899709Y-97910348D01*
X193100667Y-97921703D01*
X193100667Y-97344519D01*
X192899709Y-97355874D01*
G36*
X196314604Y-94053874D02*
X196202836Y-94063085D01*
X196131759Y-94078371D01*
X196085636Y-94104493D01*
X196060604Y-94130741D01*
X196020927Y-94215537D01*
X196007473Y-94323168D01*
X196023675Y-94424832D01*
X196025087Y-94428624D01*
X196075851Y-94487679D01*
X196170038Y-94531090D01*
X196295722Y-94554275D01*
X196358932Y-94556889D01*
X196515556Y-94556889D01*
X196515556Y-94042519D01*
X196314604Y-94053874D01*
X196314604Y-94053874D01*
G37*
X196314604Y-94053874D02*
X196202836Y-94063085D01*
X196131759Y-94078371D01*
X196085636Y-94104493D01*
X196060604Y-94130741D01*
X196020927Y-94215537D01*
X196007473Y-94323168D01*
X196023675Y-94424832D01*
X196025087Y-94428624D01*
X196075851Y-94487679D01*
X196170038Y-94531090D01*
X196295722Y-94554275D01*
X196358932Y-94556889D01*
X196515556Y-94556889D01*
X196515556Y-94042519D01*
X196314604Y-94053874D01*
G36*
X189392579Y-94823673D02*
X189259320Y-94861504D01*
X189174322Y-94923603D01*
X189149376Y-94966583D01*
X189121587Y-95102103D01*
X189140881Y-95226896D01*
X189189427Y-95310260D01*
X189225781Y-95348136D01*
X189264978Y-95372240D01*
X189320995Y-95386408D01*
X189407805Y-95394473D01*
X189513982Y-95399308D01*
X189770445Y-95409172D01*
X189770445Y-94810889D01*
X189571983Y-94810889D01*
X189392579Y-94823673D01*
X189392579Y-94823673D01*
G37*
X189392579Y-94823673D02*
X189259320Y-94861504D01*
X189174322Y-94923603D01*
X189149376Y-94966583D01*
X189121587Y-95102103D01*
X189140881Y-95226896D01*
X189189427Y-95310260D01*
X189225781Y-95348136D01*
X189264978Y-95372240D01*
X189320995Y-95386408D01*
X189407805Y-95394473D01*
X189513982Y-95399308D01*
X189770445Y-95409172D01*
X189770445Y-94810889D01*
X189571983Y-94810889D01*
X189392579Y-94823673D01*
G36*
X189541902Y-94025069D02*
X189424078Y-94032399D01*
X189348261Y-94043958D01*
X189300013Y-94063668D01*
X189264899Y-94095451D01*
X189259680Y-94101739D01*
X189212152Y-94200464D01*
X189216218Y-94304581D01*
X189271079Y-94398655D01*
X189275273Y-94402949D01*
X189317926Y-94439117D01*
X189366543Y-94460035D01*
X189437518Y-94469726D01*
X189547242Y-94472214D01*
X189557495Y-94472222D01*
X189770445Y-94472222D01*
X189770445Y-94014690D01*
X189541902Y-94025069D01*
X189541902Y-94025069D01*
G37*
X189541902Y-94025069D02*
X189424078Y-94032399D01*
X189348261Y-94043958D01*
X189300013Y-94063668D01*
X189264899Y-94095451D01*
X189259680Y-94101739D01*
X189212152Y-94200464D01*
X189216218Y-94304581D01*
X189271079Y-94398655D01*
X189275273Y-94402949D01*
X189317926Y-94439117D01*
X189366543Y-94460035D01*
X189437518Y-94469726D01*
X189547242Y-94472214D01*
X189557495Y-94472222D01*
X189770445Y-94472222D01*
X189770445Y-94014690D01*
X189541902Y-94025069D01*
D12*
X183750000Y-113250000D03*
X183750000Y-122750000D03*
X200250000Y-122750000D03*
X200250000Y-113250000D03*
D13*
X203990000Y-118360000D03*
X203990000Y-116510000D03*
X203990000Y-114660000D03*
X205850000Y-118650000D03*
X205850000Y-114350000D03*
D14*
X207700000Y-115750000D03*
X207700000Y-117250000D03*
D15*
X205740000Y-127000000D03*
D16*
X205740000Y-129540000D03*
X203200000Y-127000000D03*
X203200000Y-129540000D03*
X200660000Y-127000000D03*
X200660000Y-129540000D03*
X198120000Y-127000000D03*
X198120000Y-129540000D03*
X195580000Y-127000000D03*
X195580000Y-129540000D03*
X193040000Y-127000000D03*
X193040000Y-129540000D03*
X190500000Y-127000000D03*
X190500000Y-129540000D03*
X187960000Y-127000000D03*
X187960000Y-129540000D03*
X185420000Y-127000000D03*
X185420000Y-129540000D03*
X182880000Y-127000000D03*
X182880000Y-129540000D03*
D10*
G36*
X204198082Y-111255900D02*
X202438318Y-110239900D01*
X203301918Y-108744100D01*
X205061682Y-109760100D01*
X204198082Y-111255900D01*
X204198082Y-111255900D01*
G37*
D17*
X204888018Y-107724095D02*
X205151982Y-107876495D01*
X206158018Y-105524391D02*
X206421982Y-105676791D01*
X207428018Y-103324686D02*
X207691982Y-103477086D01*
D18*
X199000000Y-111000000D03*
X202500000Y-104500000D03*
X180340000Y-94615000D03*
X203500000Y-102750000D03*
X194000000Y-124500000D03*
X181500000Y-104500000D03*
X181500000Y-106000000D03*
X181500000Y-102500000D03*
X201900000Y-106500000D03*
D19*
X203990000Y-116510000D02*
X202990000Y-116510000D01*
X202990000Y-116510000D02*
X201500000Y-118000000D01*
X203990000Y-118360000D02*
X203990000Y-119510000D01*
X203990000Y-119510000D02*
X200500000Y-123000000D01*
X203990000Y-116510000D02*
X203990000Y-118360000D01*
D20*
X203200000Y-127000000D02*
X201930000Y-128270000D01*
X183500000Y-114285000D02*
X183500000Y-113000000D01*
X191770000Y-122555000D02*
X183500000Y-114285000D01*
X191770000Y-127635000D02*
X191770000Y-122555000D01*
X192405000Y-128270000D02*
X191770000Y-127635000D01*
X201930000Y-128270000D02*
X192405000Y-128270000D01*
D21*
X200660000Y-127000000D02*
X200660000Y-126160000D01*
X200660000Y-126160000D02*
X197500000Y-123000000D01*
X197500000Y-112500000D02*
X199000000Y-111000000D01*
X197500000Y-123000000D02*
X197500000Y-112500000D01*
X200250000Y-110000000D02*
X201250000Y-110000000D01*
X201250000Y-110000000D02*
X203037637Y-108212363D01*
X206100000Y-103008651D02*
X206100000Y-102100000D01*
X203037637Y-108212363D02*
X206100000Y-103008651D01*
X206100000Y-102100000D02*
X204750000Y-100750000D01*
X198500000Y-110000000D02*
X200250000Y-110000000D01*
X196500000Y-112000000D02*
X198500000Y-110000000D01*
X204750000Y-100750000D02*
X202750000Y-100750000D01*
X196500000Y-123500000D02*
X196500000Y-112000000D01*
X202250000Y-104500000D02*
X202500000Y-104500000D01*
X202250000Y-103500000D02*
X202250000Y-104500000D01*
X202250000Y-101250000D02*
X202250000Y-103500000D01*
X202750000Y-100750000D02*
X202250000Y-101250000D01*
X198120000Y-127000000D02*
X198120000Y-125120000D01*
X198120000Y-125120000D02*
X196500000Y-123500000D01*
D20*
X198120000Y-127000000D02*
X198120000Y-126365000D01*
X182880000Y-129540000D02*
X184150000Y-128270000D01*
X185420000Y-121285000D02*
X178435000Y-114300000D01*
X185420000Y-124460000D02*
X185420000Y-121285000D01*
X184150000Y-125730000D02*
X185420000Y-124460000D01*
X184150000Y-128270000D02*
X184150000Y-125730000D01*
X178435000Y-96520000D02*
X180340000Y-94615000D01*
X178435000Y-114300000D02*
X178435000Y-96520000D01*
D21*
X203500000Y-102750000D02*
X204100000Y-102750000D01*
X204600000Y-103250000D02*
X204600000Y-104215385D01*
X204100000Y-102750000D02*
X204600000Y-103250000D01*
X198500000Y-109000000D02*
X201200000Y-109000000D01*
X201200000Y-109000000D02*
X202600000Y-107600000D01*
X202600000Y-107600000D02*
X204600000Y-104215385D01*
X195580000Y-111920000D02*
X198500000Y-109000000D01*
X195580000Y-127000000D02*
X195580000Y-111920000D01*
X193040000Y-127000000D02*
X193040000Y-125460000D01*
X193040000Y-125460000D02*
X194000000Y-124500000D01*
X187960000Y-127000000D02*
X187960000Y-121285000D01*
X180500000Y-105500000D02*
X181500000Y-104500000D01*
X180500000Y-113825000D02*
X180500000Y-105500000D01*
X187960000Y-121285000D02*
X180500000Y-113825000D01*
X186000000Y-121000000D02*
X186000000Y-126420000D01*
X179000000Y-114000000D02*
X186000000Y-121000000D01*
X179000000Y-103000000D02*
X179000000Y-114000000D01*
X181000000Y-101000000D02*
X179000000Y-103000000D01*
X182500000Y-101000000D02*
X181000000Y-101000000D01*
X183000000Y-101500000D02*
X182500000Y-101000000D01*
X183000000Y-105500000D02*
X183000000Y-101500000D01*
X182500000Y-106000000D02*
X183000000Y-105500000D01*
X181500000Y-106000000D02*
X182500000Y-106000000D01*
X186000000Y-126420000D02*
X185420000Y-127000000D01*
X186690000Y-128270000D02*
X185420000Y-129540000D01*
X186690000Y-120830000D02*
X186690000Y-128270000D01*
X179750000Y-113890000D02*
X186690000Y-120830000D01*
X179750000Y-104250000D02*
X179750000Y-113890000D01*
X181500000Y-102500000D02*
X179750000Y-104250000D01*
X187960000Y-129540000D02*
X189230000Y-128270000D01*
X199570000Y-106500000D02*
X201900000Y-106500000D01*
X196215000Y-109855000D02*
X199570000Y-106500000D01*
X183515000Y-109855000D02*
X196215000Y-109855000D01*
X181610000Y-111760000D02*
X183515000Y-109855000D01*
X181610000Y-113665000D02*
X181610000Y-111760000D01*
X189230000Y-121285000D02*
X181610000Y-113665000D01*
X189230000Y-128270000D02*
X189230000Y-121285000D01*
D20*
G36*
X209400000Y-131400000D02*
X177600000Y-131400000D01*
X177600000Y-123031250D01*
X182375000Y-123031250D01*
X182375000Y-123624320D01*
X182470151Y-123854034D01*
X182645966Y-124029850D01*
X182875680Y-124125000D01*
X183468750Y-124125000D01*
X183625000Y-123968750D01*
X183625000Y-122875000D01*
X182531250Y-122875000D01*
X182375000Y-123031250D01*
X177600000Y-123031250D01*
X177600000Y-121875680D01*
X182375000Y-121875680D01*
X182375000Y-122468750D01*
X182531250Y-122625000D01*
X183625000Y-122625000D01*
X183625000Y-121531250D01*
X183468750Y-121375000D01*
X182875680Y-121375000D01*
X182645966Y-121470150D01*
X182470151Y-121645966D01*
X182375000Y-121875680D01*
X177600000Y-121875680D01*
X177600000Y-96520000D01*
X177785000Y-96520000D01*
X177785000Y-114300000D01*
X177823412Y-114493112D01*
X177834478Y-114548745D01*
X177975381Y-114759619D01*
X184590761Y-121375000D01*
X184031250Y-121375000D01*
X183875000Y-121531250D01*
X183875000Y-122625000D01*
X183895000Y-122625000D01*
X183895000Y-122875000D01*
X183875000Y-122875000D01*
X183875000Y-123968750D01*
X184031250Y-124125000D01*
X184624320Y-124125000D01*
X184770000Y-124064658D01*
X184770000Y-124190761D01*
X183690381Y-125270381D01*
X183620476Y-125375000D01*
X181250000Y-125375000D01*
X181204568Y-125383549D01*
X181162841Y-125410399D01*
X181134848Y-125451368D01*
X181125000Y-125500000D01*
X181125000Y-130750000D01*
X181133549Y-130795432D01*
X181160399Y-130837159D01*
X181201368Y-130865152D01*
X181250000Y-130875000D01*
X182583331Y-130875000D01*
X182852796Y-130928600D01*
X182907204Y-130928600D01*
X183176669Y-130875000D01*
X185123331Y-130875000D01*
X185392796Y-130928600D01*
X185447204Y-130928600D01*
X185716669Y-130875000D01*
X187663331Y-130875000D01*
X187932796Y-130928600D01*
X187987204Y-130928600D01*
X188256669Y-130875000D01*
X190203331Y-130875000D01*
X190472796Y-130928600D01*
X190527204Y-130928600D01*
X190796669Y-130875000D01*
X192743331Y-130875000D01*
X193012796Y-130928600D01*
X193067204Y-130928600D01*
X193336669Y-130875000D01*
X195283331Y-130875000D01*
X195552796Y-130928600D01*
X195607204Y-130928600D01*
X195876669Y-130875000D01*
X197823331Y-130875000D01*
X198092796Y-130928600D01*
X198147204Y-130928600D01*
X198416669Y-130875000D01*
X200363331Y-130875000D01*
X200632796Y-130928600D01*
X200687204Y-130928600D01*
X200956669Y-130875000D01*
X202250000Y-130875000D01*
X202295432Y-130866451D01*
X202337159Y-130839601D01*
X202365152Y-130798632D01*
X202372051Y-130764561D01*
X202844492Y-130985535D01*
X203075000Y-130867102D01*
X203075000Y-129665000D01*
X203325000Y-129665000D01*
X203325000Y-130867102D01*
X203555508Y-130985535D01*
X204081629Y-130739453D01*
X204470000Y-130314626D01*
X204858371Y-130739453D01*
X205384492Y-130985535D01*
X205615000Y-130867102D01*
X205615000Y-129665000D01*
X205865000Y-129665000D01*
X205865000Y-130867102D01*
X206095508Y-130985535D01*
X206621629Y-130739453D01*
X207013530Y-130310765D01*
X207185525Y-129895507D01*
X207066473Y-129665000D01*
X205865000Y-129665000D01*
X205615000Y-129665000D01*
X203325000Y-129665000D01*
X203075000Y-129665000D01*
X203055000Y-129665000D01*
X203055000Y-129415000D01*
X203075000Y-129415000D01*
X203075000Y-129395000D01*
X203325000Y-129395000D01*
X203325000Y-129415000D01*
X205615000Y-129415000D01*
X205615000Y-129395000D01*
X205865000Y-129395000D01*
X205865000Y-129415000D01*
X207066473Y-129415000D01*
X207185525Y-129184493D01*
X207013530Y-128769235D01*
X206881672Y-128625000D01*
X207250000Y-128625000D01*
X207295432Y-128616451D01*
X207337159Y-128589601D01*
X207365152Y-128548632D01*
X207375000Y-128500000D01*
X207375000Y-125500000D01*
X207366451Y-125454568D01*
X207339601Y-125412841D01*
X207298632Y-125384848D01*
X207250000Y-125375000D01*
X200829594Y-125375000D01*
X199579594Y-124125000D01*
X199968750Y-124125000D01*
X200125000Y-123968750D01*
X200125000Y-122875000D01*
X200375000Y-122875000D01*
X200375000Y-123968750D01*
X200531250Y-124125000D01*
X201124320Y-124125000D01*
X201354034Y-124029850D01*
X201529849Y-123854034D01*
X201625000Y-123624320D01*
X201625000Y-123031250D01*
X201468750Y-122875000D01*
X200375000Y-122875000D01*
X200125000Y-122875000D01*
X199031250Y-122875000D01*
X198875000Y-123031250D01*
X198875000Y-123420406D01*
X198175000Y-122720406D01*
X198175000Y-121875680D01*
X198875000Y-121875680D01*
X198875000Y-122468750D01*
X199031250Y-122625000D01*
X200125000Y-122625000D01*
X200125000Y-121531250D01*
X200375000Y-121531250D01*
X200375000Y-122625000D01*
X201468750Y-122625000D01*
X201625000Y-122468750D01*
X201625000Y-121875680D01*
X201529849Y-121645966D01*
X201354034Y-121470150D01*
X201124320Y-121375000D01*
X200531250Y-121375000D01*
X200375000Y-121531250D01*
X200125000Y-121531250D01*
X199968750Y-121375000D01*
X199375680Y-121375000D01*
X199145966Y-121470150D01*
X198970151Y-121645966D01*
X198875000Y-121875680D01*
X198175000Y-121875680D01*
X198175000Y-112779594D01*
X198454594Y-112500000D01*
X198964715Y-112500000D01*
X198964715Y-114000000D01*
X199001323Y-114194553D01*
X199116304Y-114373239D01*
X199291744Y-114493112D01*
X199500000Y-114535285D01*
X201000000Y-114535285D01*
X201194553Y-114498677D01*
X201373239Y-114383696D01*
X201493112Y-114208256D01*
X201535285Y-114000000D01*
X202375000Y-114000000D01*
X202375000Y-116500000D01*
X202379405Y-116532890D01*
X202704351Y-117724358D01*
X202553284Y-118143627D01*
X202579845Y-118709905D01*
X202745450Y-119109709D01*
X202989000Y-119184223D01*
X203078175Y-119095048D01*
X203129405Y-119282890D01*
X203149053Y-119323721D01*
X203177275Y-119349502D01*
X203165777Y-119361000D01*
X203240291Y-119604550D01*
X203773627Y-119796716D01*
X203907751Y-119790425D01*
X205685688Y-120857187D01*
X205708837Y-120868028D01*
X205758000Y-120874744D01*
X205805902Y-120861803D01*
X208805902Y-119361803D01*
X208837159Y-119339601D01*
X208865152Y-119298632D01*
X208875000Y-119250000D01*
X208875000Y-117614637D01*
X208924787Y-117494737D01*
X208925212Y-117007401D01*
X208875000Y-116885879D01*
X208875000Y-116114637D01*
X208924787Y-115994737D01*
X208925212Y-115507401D01*
X208875000Y-115385879D01*
X208875000Y-114000000D01*
X208867879Y-113958411D01*
X208842411Y-113915827D01*
X208802382Y-113886505D01*
X205552382Y-112386505D01*
X205492000Y-112375256D01*
X205444098Y-112388197D01*
X202444098Y-113888197D01*
X202412841Y-113910399D01*
X202384848Y-113951368D01*
X202375000Y-114000000D01*
X201535285Y-114000000D01*
X201535285Y-112500000D01*
X201498677Y-112305447D01*
X201383696Y-112126761D01*
X201208256Y-112006888D01*
X201000000Y-111964715D01*
X199500000Y-111964715D01*
X199305447Y-112001323D01*
X199126761Y-112116304D01*
X199006888Y-112291744D01*
X198964715Y-112500000D01*
X198454594Y-112500000D01*
X199029568Y-111925026D01*
X199183187Y-111925160D01*
X199523286Y-111784634D01*
X199783720Y-111524655D01*
X199924839Y-111184801D01*
X199925160Y-110816813D01*
X199866564Y-110675000D01*
X201250000Y-110675000D01*
X201508312Y-110623619D01*
X201727297Y-110477297D01*
X201915447Y-110289147D01*
X201919408Y-110371286D01*
X202011407Y-110562820D01*
X202170676Y-110703470D01*
X203930440Y-111719470D01*
X204117232Y-111785044D01*
X204329468Y-111774810D01*
X204521002Y-111682811D01*
X204661652Y-111523542D01*
X205525252Y-110027742D01*
X205590826Y-109840951D01*
X205580592Y-109628714D01*
X205488593Y-109437180D01*
X205361989Y-109325376D01*
X205732886Y-109248592D01*
X206213746Y-108921845D01*
X206226090Y-108907136D01*
X206238242Y-108647985D01*
X205065753Y-107971048D01*
X205055753Y-107988369D01*
X204839247Y-107863369D01*
X204849247Y-107846048D01*
X204831926Y-107836048D01*
X204956926Y-107619542D01*
X204974247Y-107629542D01*
X204984247Y-107612221D01*
X205200753Y-107737221D01*
X205190753Y-107754542D01*
X206363242Y-108431478D01*
X206581597Y-108291379D01*
X206588164Y-108273335D01*
X206630705Y-107693524D01*
X206448125Y-107141569D01*
X206378804Y-107061270D01*
X206807526Y-107033170D01*
X207293456Y-106793535D01*
X207650692Y-106386185D01*
X207824849Y-105873133D01*
X207789412Y-105332489D01*
X207560046Y-104867383D01*
X208077526Y-104833465D01*
X208563456Y-104593830D01*
X208920692Y-104186480D01*
X209094849Y-103673428D01*
X209059412Y-103132784D01*
X208819777Y-102646854D01*
X208412427Y-102289617D01*
X208096171Y-102107027D01*
X207583119Y-101932871D01*
X207042475Y-101968307D01*
X206775000Y-102100212D01*
X206775000Y-102100000D01*
X206723619Y-101841689D01*
X206577297Y-101622703D01*
X205227297Y-100272703D01*
X205008312Y-100126381D01*
X204750000Y-100075000D01*
X202750000Y-100075000D01*
X202491688Y-100126381D01*
X202272703Y-100272703D01*
X201772703Y-100772703D01*
X201626381Y-100991688D01*
X201579394Y-101227911D01*
X201575000Y-101250000D01*
X201575000Y-104499766D01*
X201574840Y-104683187D01*
X201715366Y-105023286D01*
X201975345Y-105283720D01*
X202315199Y-105424839D01*
X202683187Y-105425160D01*
X203023286Y-105284634D01*
X203283720Y-105024655D01*
X203424839Y-104684801D01*
X203425160Y-104316813D01*
X203284634Y-103976714D01*
X203024655Y-103716280D01*
X202925000Y-103674900D01*
X202925000Y-103483287D01*
X202975345Y-103533720D01*
X203315199Y-103674839D01*
X203683187Y-103675160D01*
X203925000Y-103575245D01*
X203925000Y-104030857D01*
X202721892Y-106066886D01*
X202684634Y-105976714D01*
X202424655Y-105716280D01*
X202084801Y-105575161D01*
X201716813Y-105574840D01*
X201376714Y-105715366D01*
X201266888Y-105825000D01*
X199570000Y-105825000D01*
X199311689Y-105876381D01*
X199092703Y-106022703D01*
X195935406Y-109180000D01*
X183515000Y-109180000D01*
X183256688Y-109231381D01*
X183037703Y-109377703D01*
X181175000Y-111240406D01*
X181175000Y-106866624D01*
X181315199Y-106924839D01*
X181683187Y-106925160D01*
X182023286Y-106784634D01*
X182133112Y-106675000D01*
X182500000Y-106675000D01*
X182758312Y-106623619D01*
X182977297Y-106477297D01*
X183477297Y-105977297D01*
X183623619Y-105758312D01*
X183675000Y-105500000D01*
X183675000Y-101500000D01*
X183667922Y-101464417D01*
X183623619Y-101241688D01*
X183477297Y-101022703D01*
X182977297Y-100522703D01*
X182758312Y-100376381D01*
X182500000Y-100325000D01*
X181000000Y-100325000D01*
X180741688Y-100376381D01*
X180522703Y-100522703D01*
X179085000Y-101960406D01*
X179085000Y-96789238D01*
X180334244Y-95539995D01*
X180523187Y-95540160D01*
X180863286Y-95399634D01*
X181123720Y-95139655D01*
X181264839Y-94799801D01*
X181265160Y-94431813D01*
X181124634Y-94091714D01*
X180864655Y-93831280D01*
X180524801Y-93690161D01*
X180156813Y-93689840D01*
X179816714Y-93830366D01*
X179556280Y-94090345D01*
X179415161Y-94430199D01*
X179414995Y-94620766D01*
X177975381Y-96060381D01*
X177834478Y-96271255D01*
X177832107Y-96283175D01*
X177785000Y-96520000D01*
X177600000Y-96520000D01*
X177600000Y-93625145D01*
X186446445Y-93625145D01*
X186446652Y-93626188D01*
X186446448Y-93627229D01*
X186447114Y-93628522D01*
X186486632Y-93827998D01*
X186601387Y-94000032D01*
X186657926Y-94037873D01*
X186740055Y-94197350D01*
X186603244Y-94289670D01*
X186489141Y-94462137D01*
X186449869Y-94664394D01*
X186449721Y-94664394D01*
X186449797Y-94664768D01*
X186449724Y-94665141D01*
X186450790Y-94898668D01*
X186450951Y-94899458D01*
X186450799Y-94900252D01*
X186452407Y-95113168D01*
X186452597Y-95114086D01*
X186452424Y-95115008D01*
X186454479Y-95301412D01*
X186454737Y-95302637D01*
X186454512Y-95303867D01*
X186456923Y-95457866D01*
X186457345Y-95459828D01*
X186456999Y-95461806D01*
X186459671Y-95577500D01*
X186460646Y-95581870D01*
X186459947Y-95586293D01*
X186462786Y-95657782D01*
X186463035Y-95658818D01*
X186446445Y-95742222D01*
X186446459Y-95742291D01*
X186446445Y-95742361D01*
X186447303Y-99023194D01*
X186447328Y-99023318D01*
X186447303Y-99023442D01*
X186447612Y-99447753D01*
X186447662Y-99448005D01*
X186447613Y-99448256D01*
X186448297Y-99855890D01*
X186448349Y-99856151D01*
X186448298Y-99856413D01*
X186449331Y-100243923D01*
X186449388Y-100244205D01*
X186449333Y-100244486D01*
X186450689Y-100608430D01*
X186450752Y-100608740D01*
X186450691Y-100609055D01*
X186452344Y-100945989D01*
X186452418Y-100946352D01*
X186452348Y-100946716D01*
X186454272Y-101253194D01*
X186454364Y-101253641D01*
X186454279Y-101254086D01*
X186456449Y-101526665D01*
X186456569Y-101527243D01*
X186456459Y-101527825D01*
X186458847Y-101763059D01*
X186459020Y-101763887D01*
X186458867Y-101764716D01*
X186461449Y-101959162D01*
X186461731Y-101960488D01*
X186461491Y-101961823D01*
X186464240Y-102112037D01*
X186464808Y-102114641D01*
X186464361Y-102117271D01*
X186467251Y-102219808D01*
X186469064Y-102227747D01*
X186467945Y-102235809D01*
X186470951Y-102287224D01*
X186487649Y-102351347D01*
X186487828Y-102352933D01*
X186492615Y-102408890D01*
X186494548Y-102412621D01*
X186495064Y-102417202D01*
X186496742Y-102422468D01*
X186514571Y-102454733D01*
X186523064Y-102487346D01*
X186555472Y-102530204D01*
X186587751Y-102592502D01*
X186593270Y-102597151D01*
X186596760Y-102603467D01*
X186632317Y-102631827D01*
X186647792Y-102652292D01*
X186683835Y-102673442D01*
X186745910Y-102725732D01*
X186752788Y-102727915D01*
X186758430Y-102732415D01*
X186809342Y-102747086D01*
X186817464Y-102751852D01*
X186827231Y-102763849D01*
X186879426Y-102792011D01*
X186926130Y-102828560D01*
X186969555Y-102840641D01*
X187009226Y-102862045D01*
X187068223Y-102868089D01*
X187125360Y-102883984D01*
X187154247Y-102886154D01*
X187166949Y-102884605D01*
X187179426Y-102887444D01*
X187255740Y-102889536D01*
X187258688Y-102889033D01*
X187261610Y-102889664D01*
X187380844Y-102891611D01*
X187382262Y-102891353D01*
X187383674Y-102891650D01*
X187541321Y-102893382D01*
X187542226Y-102893212D01*
X187543128Y-102893399D01*
X187734676Y-102894850D01*
X187735365Y-102894718D01*
X187736050Y-102894858D01*
X187956993Y-102895959D01*
X187957398Y-102895881D01*
X187957805Y-102895963D01*
X188047061Y-102896271D01*
X188047762Y-102896134D01*
X188048463Y-102896274D01*
X188286367Y-102896465D01*
X188287640Y-102896213D01*
X188288915Y-102896461D01*
X188505202Y-102895595D01*
X188506692Y-102895292D01*
X188508183Y-102895574D01*
X188697292Y-102893753D01*
X188699267Y-102893340D01*
X188701253Y-102893700D01*
X188857622Y-102891025D01*
X188860762Y-102890344D01*
X188863934Y-102890880D01*
X188982003Y-102887453D01*
X188988798Y-102885895D01*
X188995700Y-102886878D01*
X189069909Y-102882801D01*
X189096280Y-102876033D01*
X189099471Y-102876443D01*
X189107573Y-102874246D01*
X189138036Y-102874609D01*
X189162821Y-102869985D01*
X189188481Y-102859713D01*
X189216007Y-102857191D01*
X189260180Y-102833966D01*
X189270212Y-102831391D01*
X189272796Y-102829451D01*
X189299062Y-102822330D01*
X189314341Y-102810534D01*
X189353257Y-102823510D01*
X189415895Y-102855393D01*
X189433006Y-102860211D01*
X189439976Y-102860757D01*
X189443753Y-102862428D01*
X189469053Y-102863033D01*
X189472617Y-102863312D01*
X189510308Y-102875880D01*
X189543770Y-102880102D01*
X189558728Y-102879041D01*
X189573197Y-102882984D01*
X189625712Y-102886651D01*
X189633007Y-102885722D01*
X189640150Y-102887461D01*
X189714419Y-102890614D01*
X189718500Y-102889981D01*
X189722527Y-102890896D01*
X189821248Y-102893574D01*
X189823718Y-102893152D01*
X189826169Y-102893685D01*
X189952043Y-102895930D01*
X189953622Y-102895645D01*
X189955188Y-102895976D01*
X190110916Y-102897829D01*
X190111959Y-102897634D01*
X190113000Y-102897850D01*
X190301283Y-102899350D01*
X190301985Y-102899216D01*
X190302688Y-102899360D01*
X190526225Y-102900548D01*
X190526705Y-102900455D01*
X190527183Y-102900552D01*
X190788676Y-102901469D01*
X190789003Y-102901405D01*
X190789331Y-102901471D01*
X191091479Y-102902157D01*
X191091703Y-102902113D01*
X191091923Y-102902157D01*
X191437425Y-102902652D01*
X191437569Y-102902623D01*
X191437717Y-102902653D01*
X191829277Y-102902999D01*
X191829369Y-102902981D01*
X191829460Y-102902999D01*
X192269776Y-102903236D01*
X192269828Y-102903226D01*
X192269880Y-102903236D01*
X192761653Y-102903404D01*
X192761675Y-102903400D01*
X192761697Y-102903404D01*
X193220474Y-102903523D01*
X193220478Y-102903522D01*
X193220482Y-102903523D01*
X196995204Y-102904444D01*
X196996164Y-102904253D01*
X196997125Y-102904441D01*
X197097547Y-102884112D01*
X197198035Y-102864149D01*
X197198849Y-102863605D01*
X197199809Y-102863411D01*
X197284820Y-102806192D01*
X197370008Y-102749302D01*
X197370552Y-102748488D01*
X197371365Y-102747941D01*
X197428064Y-102662460D01*
X197484939Y-102577385D01*
X197485130Y-102576426D01*
X197485672Y-102575609D01*
X197505337Y-102474970D01*
X197525333Y-102374573D01*
X197525142Y-102373613D01*
X197525330Y-102372652D01*
X197522730Y-101603597D01*
X197522730Y-101603596D01*
X197520129Y-100834541D01*
X197518686Y-100827415D01*
X197525333Y-100794000D01*
X197525333Y-93625556D01*
X197525222Y-93624998D01*
X197525332Y-93624438D01*
X197504936Y-93523016D01*
X197484989Y-93422734D01*
X197484674Y-93422262D01*
X197484561Y-93421702D01*
X197427183Y-93336220D01*
X197370100Y-93250789D01*
X197369626Y-93250472D01*
X197369309Y-93250000D01*
X197283558Y-93192964D01*
X197198155Y-93135900D01*
X197197599Y-93135789D01*
X197197123Y-93135473D01*
X197096004Y-93115581D01*
X196995333Y-93095556D01*
X196994775Y-93095667D01*
X196994216Y-93095557D01*
X195844160Y-93097982D01*
X195843604Y-93098094D01*
X195843050Y-93097986D01*
X195576795Y-93099105D01*
X195575540Y-93099360D01*
X195574280Y-93099121D01*
X195338767Y-93101228D01*
X195337187Y-93101557D01*
X195335600Y-93101266D01*
X195134964Y-93104260D01*
X195132731Y-93104739D01*
X195130483Y-93104346D01*
X194968858Y-93108125D01*
X194965103Y-93108964D01*
X194961300Y-93108355D01*
X194842824Y-93112817D01*
X194834150Y-93114885D01*
X194825308Y-93113768D01*
X194754114Y-93118813D01*
X194702411Y-93132961D01*
X194648961Y-93137036D01*
X194629186Y-93142561D01*
X194610591Y-93151978D01*
X194602101Y-93153134D01*
X194596081Y-93156645D01*
X194576953Y-93160128D01*
X194559155Y-93171607D01*
X194536445Y-93165058D01*
X194495231Y-93143007D01*
X194470807Y-93135587D01*
X194437319Y-93132275D01*
X194419875Y-93125998D01*
X194403654Y-93126766D01*
X194361423Y-93114588D01*
X194296102Y-93109062D01*
X194282802Y-93110557D01*
X194269776Y-93107494D01*
X194159920Y-93103688D01*
X194154503Y-93104572D01*
X194149134Y-93103424D01*
X193991106Y-93101168D01*
X193988430Y-93101661D01*
X193985766Y-93101119D01*
X193775929Y-93100238D01*
X193774913Y-93100436D01*
X193773896Y-93100233D01*
X193707637Y-93100209D01*
X193706371Y-93100460D01*
X193705103Y-93100214D01*
X193493529Y-93101149D01*
X193490754Y-93101714D01*
X193487971Y-93101203D01*
X193315175Y-93103779D01*
X193310865Y-93104703D01*
X193306517Y-93103979D01*
X193176341Y-93108048D01*
X193167588Y-93110075D01*
X193158680Y-93108895D01*
X193074972Y-93114311D01*
X193041189Y-93123333D01*
X193020284Y-93123316D01*
X193017287Y-93123058D01*
X193016484Y-93123312D01*
X193006221Y-93123304D01*
X192972822Y-93129919D01*
X192920516Y-93151535D01*
X192908767Y-93153134D01*
X192892527Y-93162606D01*
X192883972Y-93165317D01*
X192875178Y-93167666D01*
X192874200Y-93168415D01*
X192847359Y-93176924D01*
X192840297Y-93174777D01*
X192823568Y-93164286D01*
X192783533Y-93157521D01*
X192782957Y-93157346D01*
X192685485Y-93127205D01*
X192640103Y-93122489D01*
X192625197Y-93123876D01*
X192610667Y-93120256D01*
X192522727Y-93116046D01*
X192517483Y-93116831D01*
X192512313Y-93115650D01*
X192380352Y-93111931D01*
X192377719Y-93112378D01*
X192375114Y-93111810D01*
X192197659Y-93108564D01*
X192196100Y-93108845D01*
X192194549Y-93108516D01*
X191970132Y-93105728D01*
X191969119Y-93105916D01*
X191968111Y-93105707D01*
X191695264Y-93103358D01*
X191694564Y-93103491D01*
X191693862Y-93103347D01*
X191371114Y-93101422D01*
X191370609Y-93101519D01*
X191370105Y-93101417D01*
X190995990Y-93099898D01*
X190995613Y-93099971D01*
X190995239Y-93099896D01*
X190568287Y-93098767D01*
X190568002Y-93098823D01*
X190567719Y-93098766D01*
X190086461Y-93098010D01*
X190086297Y-93098042D01*
X190086130Y-93098009D01*
X189848558Y-93097784D01*
X189848512Y-93097793D01*
X189848467Y-93097784D01*
X186976856Y-93095556D01*
X186975813Y-93095763D01*
X186974772Y-93095559D01*
X186874403Y-93115853D01*
X186774003Y-93135743D01*
X186773121Y-93136331D01*
X186772079Y-93136542D01*
X186687139Y-93193686D01*
X186601969Y-93250498D01*
X186601378Y-93251382D01*
X186600497Y-93251974D01*
X186543847Y-93337339D01*
X186486947Y-93422354D01*
X186486739Y-93423393D01*
X186486151Y-93424280D01*
X186466488Y-93524791D01*
X186446445Y-93625145D01*
X177600000Y-93625145D01*
X177600000Y-92600000D01*
X209400000Y-92600000D01*
X209400000Y-131400000D01*
X209400000Y-131400000D01*
G37*
X209400000Y-131400000D02*
X177600000Y-131400000D01*
X177600000Y-123031250D01*
X182375000Y-123031250D01*
X182375000Y-123624320D01*
X182470151Y-123854034D01*
X182645966Y-124029850D01*
X182875680Y-124125000D01*
X183468750Y-124125000D01*
X183625000Y-123968750D01*
X183625000Y-122875000D01*
X182531250Y-122875000D01*
X182375000Y-123031250D01*
X177600000Y-123031250D01*
X177600000Y-121875680D01*
X182375000Y-121875680D01*
X182375000Y-122468750D01*
X182531250Y-122625000D01*
X183625000Y-122625000D01*
X183625000Y-121531250D01*
X183468750Y-121375000D01*
X182875680Y-121375000D01*
X182645966Y-121470150D01*
X182470151Y-121645966D01*
X182375000Y-121875680D01*
X177600000Y-121875680D01*
X177600000Y-96520000D01*
X177785000Y-96520000D01*
X177785000Y-114300000D01*
X177823412Y-114493112D01*
X177834478Y-114548745D01*
X177975381Y-114759619D01*
X184590761Y-121375000D01*
X184031250Y-121375000D01*
X183875000Y-121531250D01*
X183875000Y-122625000D01*
X183895000Y-122625000D01*
X183895000Y-122875000D01*
X183875000Y-122875000D01*
X183875000Y-123968750D01*
X184031250Y-124125000D01*
X184624320Y-124125000D01*
X184770000Y-124064658D01*
X184770000Y-124190761D01*
X183690381Y-125270381D01*
X183620476Y-125375000D01*
X181250000Y-125375000D01*
X181204568Y-125383549D01*
X181162841Y-125410399D01*
X181134848Y-125451368D01*
X181125000Y-125500000D01*
X181125000Y-130750000D01*
X181133549Y-130795432D01*
X181160399Y-130837159D01*
X181201368Y-130865152D01*
X181250000Y-130875000D01*
X182583331Y-130875000D01*
X182852796Y-130928600D01*
X182907204Y-130928600D01*
X183176669Y-130875000D01*
X185123331Y-130875000D01*
X185392796Y-130928600D01*
X185447204Y-130928600D01*
X185716669Y-130875000D01*
X187663331Y-130875000D01*
X187932796Y-130928600D01*
X187987204Y-130928600D01*
X188256669Y-130875000D01*
X190203331Y-130875000D01*
X190472796Y-130928600D01*
X190527204Y-130928600D01*
X190796669Y-130875000D01*
X192743331Y-130875000D01*
X193012796Y-130928600D01*
X193067204Y-130928600D01*
X193336669Y-130875000D01*
X195283331Y-130875000D01*
X195552796Y-130928600D01*
X195607204Y-130928600D01*
X195876669Y-130875000D01*
X197823331Y-130875000D01*
X198092796Y-130928600D01*
X198147204Y-130928600D01*
X198416669Y-130875000D01*
X200363331Y-130875000D01*
X200632796Y-130928600D01*
X200687204Y-130928600D01*
X200956669Y-130875000D01*
X202250000Y-130875000D01*
X202295432Y-130866451D01*
X202337159Y-130839601D01*
X202365152Y-130798632D01*
X202372051Y-130764561D01*
X202844492Y-130985535D01*
X203075000Y-130867102D01*
X203075000Y-129665000D01*
X203325000Y-129665000D01*
X203325000Y-130867102D01*
X203555508Y-130985535D01*
X204081629Y-130739453D01*
X204470000Y-130314626D01*
X204858371Y-130739453D01*
X205384492Y-130985535D01*
X205615000Y-130867102D01*
X205615000Y-129665000D01*
X205865000Y-129665000D01*
X205865000Y-130867102D01*
X206095508Y-130985535D01*
X206621629Y-130739453D01*
X207013530Y-130310765D01*
X207185525Y-129895507D01*
X207066473Y-129665000D01*
X205865000Y-129665000D01*
X205615000Y-129665000D01*
X203325000Y-129665000D01*
X203075000Y-129665000D01*
X203055000Y-129665000D01*
X203055000Y-129415000D01*
X203075000Y-129415000D01*
X203075000Y-129395000D01*
X203325000Y-129395000D01*
X203325000Y-129415000D01*
X205615000Y-129415000D01*
X205615000Y-129395000D01*
X205865000Y-129395000D01*
X205865000Y-129415000D01*
X207066473Y-129415000D01*
X207185525Y-129184493D01*
X207013530Y-128769235D01*
X206881672Y-128625000D01*
X207250000Y-128625000D01*
X207295432Y-128616451D01*
X207337159Y-128589601D01*
X207365152Y-128548632D01*
X207375000Y-128500000D01*
X207375000Y-125500000D01*
X207366451Y-125454568D01*
X207339601Y-125412841D01*
X207298632Y-125384848D01*
X207250000Y-125375000D01*
X200829594Y-125375000D01*
X199579594Y-124125000D01*
X199968750Y-124125000D01*
X200125000Y-123968750D01*
X200125000Y-122875000D01*
X200375000Y-122875000D01*
X200375000Y-123968750D01*
X200531250Y-124125000D01*
X201124320Y-124125000D01*
X201354034Y-124029850D01*
X201529849Y-123854034D01*
X201625000Y-123624320D01*
X201625000Y-123031250D01*
X201468750Y-122875000D01*
X200375000Y-122875000D01*
X200125000Y-122875000D01*
X199031250Y-122875000D01*
X198875000Y-123031250D01*
X198875000Y-123420406D01*
X198175000Y-122720406D01*
X198175000Y-121875680D01*
X198875000Y-121875680D01*
X198875000Y-122468750D01*
X199031250Y-122625000D01*
X200125000Y-122625000D01*
X200125000Y-121531250D01*
X200375000Y-121531250D01*
X200375000Y-122625000D01*
X201468750Y-122625000D01*
X201625000Y-122468750D01*
X201625000Y-121875680D01*
X201529849Y-121645966D01*
X201354034Y-121470150D01*
X201124320Y-121375000D01*
X200531250Y-121375000D01*
X200375000Y-121531250D01*
X200125000Y-121531250D01*
X199968750Y-121375000D01*
X199375680Y-121375000D01*
X199145966Y-121470150D01*
X198970151Y-121645966D01*
X198875000Y-121875680D01*
X198175000Y-121875680D01*
X198175000Y-112779594D01*
X198454594Y-112500000D01*
X198964715Y-112500000D01*
X198964715Y-114000000D01*
X199001323Y-114194553D01*
X199116304Y-114373239D01*
X199291744Y-114493112D01*
X199500000Y-114535285D01*
X201000000Y-114535285D01*
X201194553Y-114498677D01*
X201373239Y-114383696D01*
X201493112Y-114208256D01*
X201535285Y-114000000D01*
X202375000Y-114000000D01*
X202375000Y-116500000D01*
X202379405Y-116532890D01*
X202704351Y-117724358D01*
X202553284Y-118143627D01*
X202579845Y-118709905D01*
X202745450Y-119109709D01*
X202989000Y-119184223D01*
X203078175Y-119095048D01*
X203129405Y-119282890D01*
X203149053Y-119323721D01*
X203177275Y-119349502D01*
X203165777Y-119361000D01*
X203240291Y-119604550D01*
X203773627Y-119796716D01*
X203907751Y-119790425D01*
X205685688Y-120857187D01*
X205708837Y-120868028D01*
X205758000Y-120874744D01*
X205805902Y-120861803D01*
X208805902Y-119361803D01*
X208837159Y-119339601D01*
X208865152Y-119298632D01*
X208875000Y-119250000D01*
X208875000Y-117614637D01*
X208924787Y-117494737D01*
X208925212Y-117007401D01*
X208875000Y-116885879D01*
X208875000Y-116114637D01*
X208924787Y-115994737D01*
X208925212Y-115507401D01*
X208875000Y-115385879D01*
X208875000Y-114000000D01*
X208867879Y-113958411D01*
X208842411Y-113915827D01*
X208802382Y-113886505D01*
X205552382Y-112386505D01*
X205492000Y-112375256D01*
X205444098Y-112388197D01*
X202444098Y-113888197D01*
X202412841Y-113910399D01*
X202384848Y-113951368D01*
X202375000Y-114000000D01*
X201535285Y-114000000D01*
X201535285Y-112500000D01*
X201498677Y-112305447D01*
X201383696Y-112126761D01*
X201208256Y-112006888D01*
X201000000Y-111964715D01*
X199500000Y-111964715D01*
X199305447Y-112001323D01*
X199126761Y-112116304D01*
X199006888Y-112291744D01*
X198964715Y-112500000D01*
X198454594Y-112500000D01*
X199029568Y-111925026D01*
X199183187Y-111925160D01*
X199523286Y-111784634D01*
X199783720Y-111524655D01*
X199924839Y-111184801D01*
X199925160Y-110816813D01*
X199866564Y-110675000D01*
X201250000Y-110675000D01*
X201508312Y-110623619D01*
X201727297Y-110477297D01*
X201915447Y-110289147D01*
X201919408Y-110371286D01*
X202011407Y-110562820D01*
X202170676Y-110703470D01*
X203930440Y-111719470D01*
X204117232Y-111785044D01*
X204329468Y-111774810D01*
X204521002Y-111682811D01*
X204661652Y-111523542D01*
X205525252Y-110027742D01*
X205590826Y-109840951D01*
X205580592Y-109628714D01*
X205488593Y-109437180D01*
X205361989Y-109325376D01*
X205732886Y-109248592D01*
X206213746Y-108921845D01*
X206226090Y-108907136D01*
X206238242Y-108647985D01*
X205065753Y-107971048D01*
X205055753Y-107988369D01*
X204839247Y-107863369D01*
X204849247Y-107846048D01*
X204831926Y-107836048D01*
X204956926Y-107619542D01*
X204974247Y-107629542D01*
X204984247Y-107612221D01*
X205200753Y-107737221D01*
X205190753Y-107754542D01*
X206363242Y-108431478D01*
X206581597Y-108291379D01*
X206588164Y-108273335D01*
X206630705Y-107693524D01*
X206448125Y-107141569D01*
X206378804Y-107061270D01*
X206807526Y-107033170D01*
X207293456Y-106793535D01*
X207650692Y-106386185D01*
X207824849Y-105873133D01*
X207789412Y-105332489D01*
X207560046Y-104867383D01*
X208077526Y-104833465D01*
X208563456Y-104593830D01*
X208920692Y-104186480D01*
X209094849Y-103673428D01*
X209059412Y-103132784D01*
X208819777Y-102646854D01*
X208412427Y-102289617D01*
X208096171Y-102107027D01*
X207583119Y-101932871D01*
X207042475Y-101968307D01*
X206775000Y-102100212D01*
X206775000Y-102100000D01*
X206723619Y-101841689D01*
X206577297Y-101622703D01*
X205227297Y-100272703D01*
X205008312Y-100126381D01*
X204750000Y-100075000D01*
X202750000Y-100075000D01*
X202491688Y-100126381D01*
X202272703Y-100272703D01*
X201772703Y-100772703D01*
X201626381Y-100991688D01*
X201579394Y-101227911D01*
X201575000Y-101250000D01*
X201575000Y-104499766D01*
X201574840Y-104683187D01*
X201715366Y-105023286D01*
X201975345Y-105283720D01*
X202315199Y-105424839D01*
X202683187Y-105425160D01*
X203023286Y-105284634D01*
X203283720Y-105024655D01*
X203424839Y-104684801D01*
X203425160Y-104316813D01*
X203284634Y-103976714D01*
X203024655Y-103716280D01*
X202925000Y-103674900D01*
X202925000Y-103483287D01*
X202975345Y-103533720D01*
X203315199Y-103674839D01*
X203683187Y-103675160D01*
X203925000Y-103575245D01*
X203925000Y-104030857D01*
X202721892Y-106066886D01*
X202684634Y-105976714D01*
X202424655Y-105716280D01*
X202084801Y-105575161D01*
X201716813Y-105574840D01*
X201376714Y-105715366D01*
X201266888Y-105825000D01*
X199570000Y-105825000D01*
X199311689Y-105876381D01*
X199092703Y-106022703D01*
X195935406Y-109180000D01*
X183515000Y-109180000D01*
X183256688Y-109231381D01*
X183037703Y-109377703D01*
X181175000Y-111240406D01*
X181175000Y-106866624D01*
X181315199Y-106924839D01*
X181683187Y-106925160D01*
X182023286Y-106784634D01*
X182133112Y-106675000D01*
X182500000Y-106675000D01*
X182758312Y-106623619D01*
X182977297Y-106477297D01*
X183477297Y-105977297D01*
X183623619Y-105758312D01*
X183675000Y-105500000D01*
X183675000Y-101500000D01*
X183667922Y-101464417D01*
X183623619Y-101241688D01*
X183477297Y-101022703D01*
X182977297Y-100522703D01*
X182758312Y-100376381D01*
X182500000Y-100325000D01*
X181000000Y-100325000D01*
X180741688Y-100376381D01*
X180522703Y-100522703D01*
X179085000Y-101960406D01*
X179085000Y-96789238D01*
X180334244Y-95539995D01*
X180523187Y-95540160D01*
X180863286Y-95399634D01*
X181123720Y-95139655D01*
X181264839Y-94799801D01*
X181265160Y-94431813D01*
X181124634Y-94091714D01*
X180864655Y-93831280D01*
X180524801Y-93690161D01*
X180156813Y-93689840D01*
X179816714Y-93830366D01*
X179556280Y-94090345D01*
X179415161Y-94430199D01*
X179414995Y-94620766D01*
X177975381Y-96060381D01*
X177834478Y-96271255D01*
X177832107Y-96283175D01*
X177785000Y-96520000D01*
X177600000Y-96520000D01*
X177600000Y-93625145D01*
X186446445Y-93625145D01*
X186446652Y-93626188D01*
X186446448Y-93627229D01*
X186447114Y-93628522D01*
X186486632Y-93827998D01*
X186601387Y-94000032D01*
X186657926Y-94037873D01*
X186740055Y-94197350D01*
X186603244Y-94289670D01*
X186489141Y-94462137D01*
X186449869Y-94664394D01*
X186449721Y-94664394D01*
X186449797Y-94664768D01*
X186449724Y-94665141D01*
X186450790Y-94898668D01*
X186450951Y-94899458D01*
X186450799Y-94900252D01*
X186452407Y-95113168D01*
X186452597Y-95114086D01*
X186452424Y-95115008D01*
X186454479Y-95301412D01*
X186454737Y-95302637D01*
X186454512Y-95303867D01*
X186456923Y-95457866D01*
X186457345Y-95459828D01*
X186456999Y-95461806D01*
X186459671Y-95577500D01*
X186460646Y-95581870D01*
X186459947Y-95586293D01*
X186462786Y-95657782D01*
X186463035Y-95658818D01*
X186446445Y-95742222D01*
X186446459Y-95742291D01*
X186446445Y-95742361D01*
X186447303Y-99023194D01*
X186447328Y-99023318D01*
X186447303Y-99023442D01*
X186447612Y-99447753D01*
X186447662Y-99448005D01*
X186447613Y-99448256D01*
X186448297Y-99855890D01*
X186448349Y-99856151D01*
X186448298Y-99856413D01*
X186449331Y-100243923D01*
X186449388Y-100244205D01*
X186449333Y-100244486D01*
X186450689Y-100608430D01*
X186450752Y-100608740D01*
X186450691Y-100609055D01*
X186452344Y-100945989D01*
X186452418Y-100946352D01*
X186452348Y-100946716D01*
X186454272Y-101253194D01*
X186454364Y-101253641D01*
X186454279Y-101254086D01*
X186456449Y-101526665D01*
X186456569Y-101527243D01*
X186456459Y-101527825D01*
X186458847Y-101763059D01*
X186459020Y-101763887D01*
X186458867Y-101764716D01*
X186461449Y-101959162D01*
X186461731Y-101960488D01*
X186461491Y-101961823D01*
X186464240Y-102112037D01*
X186464808Y-102114641D01*
X186464361Y-102117271D01*
X186467251Y-102219808D01*
X186469064Y-102227747D01*
X186467945Y-102235809D01*
X186470951Y-102287224D01*
X186487649Y-102351347D01*
X186487828Y-102352933D01*
X186492615Y-102408890D01*
X186494548Y-102412621D01*
X186495064Y-102417202D01*
X186496742Y-102422468D01*
X186514571Y-102454733D01*
X186523064Y-102487346D01*
X186555472Y-102530204D01*
X186587751Y-102592502D01*
X186593270Y-102597151D01*
X186596760Y-102603467D01*
X186632317Y-102631827D01*
X186647792Y-102652292D01*
X186683835Y-102673442D01*
X186745910Y-102725732D01*
X186752788Y-102727915D01*
X186758430Y-102732415D01*
X186809342Y-102747086D01*
X186817464Y-102751852D01*
X186827231Y-102763849D01*
X186879426Y-102792011D01*
X186926130Y-102828560D01*
X186969555Y-102840641D01*
X187009226Y-102862045D01*
X187068223Y-102868089D01*
X187125360Y-102883984D01*
X187154247Y-102886154D01*
X187166949Y-102884605D01*
X187179426Y-102887444D01*
X187255740Y-102889536D01*
X187258688Y-102889033D01*
X187261610Y-102889664D01*
X187380844Y-102891611D01*
X187382262Y-102891353D01*
X187383674Y-102891650D01*
X187541321Y-102893382D01*
X187542226Y-102893212D01*
X187543128Y-102893399D01*
X187734676Y-102894850D01*
X187735365Y-102894718D01*
X187736050Y-102894858D01*
X187956993Y-102895959D01*
X187957398Y-102895881D01*
X187957805Y-102895963D01*
X188047061Y-102896271D01*
X188047762Y-102896134D01*
X188048463Y-102896274D01*
X188286367Y-102896465D01*
X188287640Y-102896213D01*
X188288915Y-102896461D01*
X188505202Y-102895595D01*
X188506692Y-102895292D01*
X188508183Y-102895574D01*
X188697292Y-102893753D01*
X188699267Y-102893340D01*
X188701253Y-102893700D01*
X188857622Y-102891025D01*
X188860762Y-102890344D01*
X188863934Y-102890880D01*
X188982003Y-102887453D01*
X188988798Y-102885895D01*
X188995700Y-102886878D01*
X189069909Y-102882801D01*
X189096280Y-102876033D01*
X189099471Y-102876443D01*
X189107573Y-102874246D01*
X189138036Y-102874609D01*
X189162821Y-102869985D01*
X189188481Y-102859713D01*
X189216007Y-102857191D01*
X189260180Y-102833966D01*
X189270212Y-102831391D01*
X189272796Y-102829451D01*
X189299062Y-102822330D01*
X189314341Y-102810534D01*
X189353257Y-102823510D01*
X189415895Y-102855393D01*
X189433006Y-102860211D01*
X189439976Y-102860757D01*
X189443753Y-102862428D01*
X189469053Y-102863033D01*
X189472617Y-102863312D01*
X189510308Y-102875880D01*
X189543770Y-102880102D01*
X189558728Y-102879041D01*
X189573197Y-102882984D01*
X189625712Y-102886651D01*
X189633007Y-102885722D01*
X189640150Y-102887461D01*
X189714419Y-102890614D01*
X189718500Y-102889981D01*
X189722527Y-102890896D01*
X189821248Y-102893574D01*
X189823718Y-102893152D01*
X189826169Y-102893685D01*
X189952043Y-102895930D01*
X189953622Y-102895645D01*
X189955188Y-102895976D01*
X190110916Y-102897829D01*
X190111959Y-102897634D01*
X190113000Y-102897850D01*
X190301283Y-102899350D01*
X190301985Y-102899216D01*
X190302688Y-102899360D01*
X190526225Y-102900548D01*
X190526705Y-102900455D01*
X190527183Y-102900552D01*
X190788676Y-102901469D01*
X190789003Y-102901405D01*
X190789331Y-102901471D01*
X191091479Y-102902157D01*
X191091703Y-102902113D01*
X191091923Y-102902157D01*
X191437425Y-102902652D01*
X191437569Y-102902623D01*
X191437717Y-102902653D01*
X191829277Y-102902999D01*
X191829369Y-102902981D01*
X191829460Y-102902999D01*
X192269776Y-102903236D01*
X192269828Y-102903226D01*
X192269880Y-102903236D01*
X192761653Y-102903404D01*
X192761675Y-102903400D01*
X192761697Y-102903404D01*
X193220474Y-102903523D01*
X193220478Y-102903522D01*
X193220482Y-102903523D01*
X196995204Y-102904444D01*
X196996164Y-102904253D01*
X196997125Y-102904441D01*
X197097547Y-102884112D01*
X197198035Y-102864149D01*
X197198849Y-102863605D01*
X197199809Y-102863411D01*
X197284820Y-102806192D01*
X197370008Y-102749302D01*
X197370552Y-102748488D01*
X197371365Y-102747941D01*
X197428064Y-102662460D01*
X197484939Y-102577385D01*
X197485130Y-102576426D01*
X197485672Y-102575609D01*
X197505337Y-102474970D01*
X197525333Y-102374573D01*
X197525142Y-102373613D01*
X197525330Y-102372652D01*
X197522730Y-101603597D01*
X197522730Y-101603596D01*
X197520129Y-100834541D01*
X197518686Y-100827415D01*
X197525333Y-100794000D01*
X197525333Y-93625556D01*
X197525222Y-93624998D01*
X197525332Y-93624438D01*
X197504936Y-93523016D01*
X197484989Y-93422734D01*
X197484674Y-93422262D01*
X197484561Y-93421702D01*
X197427183Y-93336220D01*
X197370100Y-93250789D01*
X197369626Y-93250472D01*
X197369309Y-93250000D01*
X197283558Y-93192964D01*
X197198155Y-93135900D01*
X197197599Y-93135789D01*
X197197123Y-93135473D01*
X197096004Y-93115581D01*
X196995333Y-93095556D01*
X196994775Y-93095667D01*
X196994216Y-93095557D01*
X195844160Y-93097982D01*
X195843604Y-93098094D01*
X195843050Y-93097986D01*
X195576795Y-93099105D01*
X195575540Y-93099360D01*
X195574280Y-93099121D01*
X195338767Y-93101228D01*
X195337187Y-93101557D01*
X195335600Y-93101266D01*
X195134964Y-93104260D01*
X195132731Y-93104739D01*
X195130483Y-93104346D01*
X194968858Y-93108125D01*
X194965103Y-93108964D01*
X194961300Y-93108355D01*
X194842824Y-93112817D01*
X194834150Y-93114885D01*
X194825308Y-93113768D01*
X194754114Y-93118813D01*
X194702411Y-93132961D01*
X194648961Y-93137036D01*
X194629186Y-93142561D01*
X194610591Y-93151978D01*
X194602101Y-93153134D01*
X194596081Y-93156645D01*
X194576953Y-93160128D01*
X194559155Y-93171607D01*
X194536445Y-93165058D01*
X194495231Y-93143007D01*
X194470807Y-93135587D01*
X194437319Y-93132275D01*
X194419875Y-93125998D01*
X194403654Y-93126766D01*
X194361423Y-93114588D01*
X194296102Y-93109062D01*
X194282802Y-93110557D01*
X194269776Y-93107494D01*
X194159920Y-93103688D01*
X194154503Y-93104572D01*
X194149134Y-93103424D01*
X193991106Y-93101168D01*
X193988430Y-93101661D01*
X193985766Y-93101119D01*
X193775929Y-93100238D01*
X193774913Y-93100436D01*
X193773896Y-93100233D01*
X193707637Y-93100209D01*
X193706371Y-93100460D01*
X193705103Y-93100214D01*
X193493529Y-93101149D01*
X193490754Y-93101714D01*
X193487971Y-93101203D01*
X193315175Y-93103779D01*
X193310865Y-93104703D01*
X193306517Y-93103979D01*
X193176341Y-93108048D01*
X193167588Y-93110075D01*
X193158680Y-93108895D01*
X193074972Y-93114311D01*
X193041189Y-93123333D01*
X193020284Y-93123316D01*
X193017287Y-93123058D01*
X193016484Y-93123312D01*
X193006221Y-93123304D01*
X192972822Y-93129919D01*
X192920516Y-93151535D01*
X192908767Y-93153134D01*
X192892527Y-93162606D01*
X192883972Y-93165317D01*
X192875178Y-93167666D01*
X192874200Y-93168415D01*
X192847359Y-93176924D01*
X192840297Y-93174777D01*
X192823568Y-93164286D01*
X192783533Y-93157521D01*
X192782957Y-93157346D01*
X192685485Y-93127205D01*
X192640103Y-93122489D01*
X192625197Y-93123876D01*
X192610667Y-93120256D01*
X192522727Y-93116046D01*
X192517483Y-93116831D01*
X192512313Y-93115650D01*
X192380352Y-93111931D01*
X192377719Y-93112378D01*
X192375114Y-93111810D01*
X192197659Y-93108564D01*
X192196100Y-93108845D01*
X192194549Y-93108516D01*
X191970132Y-93105728D01*
X191969119Y-93105916D01*
X191968111Y-93105707D01*
X191695264Y-93103358D01*
X191694564Y-93103491D01*
X191693862Y-93103347D01*
X191371114Y-93101422D01*
X191370609Y-93101519D01*
X191370105Y-93101417D01*
X190995990Y-93099898D01*
X190995613Y-93099971D01*
X190995239Y-93099896D01*
X190568287Y-93098767D01*
X190568002Y-93098823D01*
X190567719Y-93098766D01*
X190086461Y-93098010D01*
X190086297Y-93098042D01*
X190086130Y-93098009D01*
X189848558Y-93097784D01*
X189848512Y-93097793D01*
X189848467Y-93097784D01*
X186976856Y-93095556D01*
X186975813Y-93095763D01*
X186974772Y-93095559D01*
X186874403Y-93115853D01*
X186774003Y-93135743D01*
X186773121Y-93136331D01*
X186772079Y-93136542D01*
X186687139Y-93193686D01*
X186601969Y-93250498D01*
X186601378Y-93251382D01*
X186600497Y-93251974D01*
X186543847Y-93337339D01*
X186486947Y-93422354D01*
X186486739Y-93423393D01*
X186486151Y-93424280D01*
X186466488Y-93524791D01*
X186446445Y-93625145D01*
X177600000Y-93625145D01*
X177600000Y-92600000D01*
X209400000Y-92600000D01*
X209400000Y-131400000D01*
M02*
